<svg width="119" height="128" viewBox="0 0 119 128" fill="none" xmlns="http://www.w3.org/2000/svg">
    <path fill-rule="evenodd" clip-rule="evenodd" d="M83.5133 3.03238C70.6095 0.919848 50.9319 1.09861 31.6058 14.1614C29.7953 15.385 28.0395 16.6743 26.342 18.0236C26.1842 18.1491 26.0376 18.2879 25.9029 18.4379L24.691 19.7875C23.8891 20.6806 22.7027 21.1274 21.5108 20.9852L10.445 19.6649C8.27646 19.4062 6.35954 21.0785 6.32171 23.2621L5.98519 42.6821C5.94042 42.7728 5.89621 42.8638 5.85201 42.9547L5.82935 43.0013L5.44646 43.412C5.40805 43.4532 5.42339 43.5201 5.4759 43.5405C5.519 43.5572 5.5388 43.6071 5.51907 43.6489C0.68306 53.8965 -1.12844 65.0661 0.697396 76.2705C0.697472 76.271 0.697618 76.2714 0.697828 76.2718C0.698038 76.2723 0.698183 76.2727 0.698259 76.2732C3.31424 92.3118 13.6959 105.218 28.7583 111.302C34.0986 113.458 39.7692 114.647 45.5658 114.907H45.5671C52.7945 115.23 60.1144 114.316 67.388 112.335C68.7378 113.236 70.0031 114.042 71.1593 114.753C77.3213 117.957 88.9212 122.327 97.6458 125.398C100.24 126.312 102.85 124.133 102.451 121.411L99.1713 99.0508C98.9742 97.7072 99.5363 96.3699 100.604 95.5314C102.04 94.4046 103.303 93.3299 104.366 92.3439C105.789 91.0247 109.01 88.0814 111.804 84.2715C114.497 80.5994 118.032 74.4835 117.908 66.736V66.7341C117.837 62.3908 116.643 58.5167 114.743 55.16C113.986 53.8215 113.973 52.1684 114.738 50.834C118.381 44.4768 119.093 37.9827 118.085 32.3899C118.085 32.3895 118.085 32.389 118.085 32.3886C118.084 32.3882 118.084 32.3877 118.084 32.3873C116.663 24.5091 112.077 18.6028 107.69 14.6333C103.245 10.6116 98.0714 7.70175 93.4223 5.82414C90.4198 4.61156 87.2959 3.68106 84.1246 3.135L84.1221 3.13437L83.5133 3.03238Z" fill="#2A57AE"/>
    <path d="M52.9276 78.5035L50.9176 76.373L58.9083 68.8328L60.9183 70.9633L52.9276 78.5035Z" fill="white"/>
    <path d="M22.6818 38.473C23.4428 42.1874 25.3115 49.6512 28.6505 53.5196C30.2438 55.3671 31.9186 56.6542 33.6269 57.3441C34.8034 57.8193 36.0204 58.0156 37.2517 57.9308L41.2923 54.117C41.8067 50.1965 39.4985 47.1795 37.4259 45.3148C35.6388 43.708 32.9309 42.1659 29.3761 40.7303C26.8342 39.7037 24.3666 38.9436 22.6818 38.473ZM32.5307 60.0601C30.3852 59.1936 28.3332 57.6366 26.4314 55.4322C21.3447 49.5372 19.4561 37.2186 19.3777 36.6972L19.0624 34.5816L21.1483 35.0518C21.3323 35.0933 25.7076 36.0893 30.4731 38.014C34.3461 39.5781 37.3439 41.3016 39.3838 43.1364C43.2143 46.5828 44.8886 50.8332 44.1 55.1055L44.0134 55.5763L38.5505 60.7325L38.0757 60.7926C36.1873 61.0304 34.3219 60.7835 32.5307 60.0601Z" fill="white"/>
    <path d="M40.2983 59.0802C43.0434 64.2115 51.3112 74.6549 59.8347 83.6877C67.8936 92.2285 76.7666 98.092 81.7353 101.028C79.0942 95.8971 73.7543 86.7005 65.6934 78.1575C57.1737 69.1277 47.2276 60.2689 42.2616 57.2279L40.2983 59.0802ZM87.872 107.531L84.3902 105.836C83.8107 105.555 70.0425 98.7736 57.703 85.6972C49.6969 77.2127 39.779 65.1003 37.1715 59.3669L36.7364 58.414L41.8031 53.6343L42.73 54.1227C48.305 57.0626 59.82 67.6646 67.8257 76.1483C80.1638 89.2248 86.1342 103.36 86.3818 103.956L87.872 107.531Z" fill="white"/>
    <path d="M83.6878 56.4092C81.582 55.5587 78.531 55.9314 75.7255 57.3833C71.6726 59.483 69.2981 63.289 70.5429 65.6946C70.8938 66.3708 71.5049 66.8897 72.3596 67.2349C74.4648 68.0851 77.5148 67.7114 80.3203 66.2594C84.375 64.1604 86.7492 60.3551 85.5037 57.9478C85.1546 57.2723 84.5425 56.7544 83.6878 56.4092ZM71.2628 69.9506C69.7621 69.3445 68.6139 68.3386 67.9417 67.0409C65.9003 63.0948 68.7264 57.7097 74.3788 54.7813C77.9755 52.9206 81.8652 52.5137 84.7848 53.6929C86.2861 54.2992 87.4331 55.3046 88.1053 56.6024C90.1486 60.5506 87.3192 65.9351 81.6657 68.861C78.0708 70.7224 74.1812 71.1293 71.2628 69.9506Z" fill="white"/>
    <path d="M77.1117 28.9711C74.2661 27.8219 71.0166 29.2022 69.8673 32.0478C68.7183 34.8929 70.0978 38.1427 72.9434 39.292C75.7885 40.441 79.0386 39.0609 80.1876 36.2158C81.3368 33.3702 79.9567 30.1201 77.1117 28.9711ZM71.8467 42.0077C67.5027 40.2533 65.3971 35.2935 67.151 30.9508C68.9051 26.6075 73.8648 24.5004 78.2087 26.2548C82.5526 28.0092 84.6586 32.9698 82.9045 37.3131C81.1506 41.6558 76.1906 43.762 71.8467 42.0077Z" fill="white"/>
    <path d="M54.7003 34.5941C51.8553 33.4451 48.6052 34.8253 47.4562 37.6703C46.3069 40.5159 47.687 43.766 50.5321 44.915C53.3771 46.064 56.6272 44.6839 57.7764 41.8383C58.9255 38.9933 57.5453 35.7432 54.7003 34.5941ZM49.4353 47.6307C45.0926 45.8769 42.9857 40.9166 44.7399 36.5733C46.4937 32.2305 51.4546 30.124 55.7973 31.8778C60.1401 33.6317 62.2472 38.5928 60.4934 42.9356C58.7392 47.2789 53.778 49.3846 49.4353 47.6307Z" fill="white"/>
    <path d="M39.539 75.2633C36.694 74.1143 33.4439 75.4944 32.2947 78.3401C31.1454 81.1857 32.5258 84.4352 35.3708 85.5842C38.2158 86.7332 41.4657 85.3537 42.6149 82.5081C43.7642 79.6625 42.3841 76.4123 39.539 75.2633ZM34.274 88.2999C29.9313 86.546 27.8239 81.5855 29.5778 77.2428C31.3319 72.8995 36.2931 70.7938 40.6358 72.5476C44.9785 74.3015 47.0854 79.2618 45.3312 83.6051C43.5774 87.9478 38.6167 90.0538 34.274 88.2999Z" fill="white"/>
    <path d="M22.4508 48.3039C17.9476 56.4054 16.2985 65.0601 17.675 73.5039C19.3134 83.5527 25.7005 91.5163 35.1985 95.3522C38.6577 96.7492 42.405 97.547 46.3355 97.7233C52.9357 98.0187 59.9276 96.908 67.1367 94.4228C63.7174 91.6434 60.5523 88.7162 57.7035 85.6971C50.3187 77.8706 41.3081 66.9572 37.9054 60.811C33.8139 61.2637 29.872 59.4198 26.4314 55.4306C24.9571 53.7215 23.6228 51.3314 22.4508 48.3039ZM34.1017 98.0679C23.6317 93.8394 16.5905 85.0583 14.7829 73.975C13.1375 63.8793 15.485 53.5388 21.574 44.0727L23.2672 41.4376L24.2024 44.4276C25.4655 48.4664 27.0029 51.6094 28.65 53.5178C31.341 56.6383 34.2331 58.1386 37.2509 57.9295L38.9877 56.288L39.8357 58.1535C41.9774 62.8557 50.7623 74.0719 59.8346 83.6873C63.1388 87.1898 66.8905 90.5701 70.9797 93.7313L73.0298 95.3155L70.6154 96.2545C70.1651 96.4308 69.6915 96.6124 69.1659 96.8122C61.2165 99.6875 53.4979 100.976 46.2051 100.65C41.9414 100.458 37.8694 99.5896 34.1017 98.0679Z" fill="white"/>
    <path d="M44.1291 54.9405C50.0698 58.6949 60.4411 68.3228 67.826 76.1493C71.5816 80.1293 75.1224 84.6172 78.3625 89.5049C84.8537 86.0498 89.9916 82.2161 92.6707 79.7295C95.1013 77.4769 100.794 72.2007 100.709 67.0147C100.672 64.7238 99.5508 62.6523 97.2837 60.6838C94.6622 58.3819 93.1985 56.1062 92.9245 53.9142C92.4599 50.1971 95.7929 47.0302 96.1757 46.6817C100.168 43.0316 101.844 39.2501 101.157 35.4413C100.017 29.1174 92.8083 24.1269 86.9811 21.7735C85.0245 20.9833 83.0276 20.4 81.206 20.0862C71.152 18.3561 56.0576 18.3961 41.2381 28.412C37.1101 31.202 33.3776 34.3776 30.1199 37.8724C30.2371 37.9183 30.355 37.9659 30.4729 38.0135C34.3452 39.5774 37.3427 41.3001 39.3837 43.1353C43.1651 46.5374 44.8462 50.7241 44.1291 54.9405ZM77.3284 93.2883L76.6258 92.1993C73.288 87.0322 69.6108 82.3087 65.6945 78.1582C57.1739 69.1287 47.2276 60.2705 42.2618 57.2289L40.6856 58.717L38.6756 56.5865L41.2923 54.1159C41.8064 50.196 39.4985 47.1784 37.4259 45.3137C35.6388 43.707 32.9303 42.1646 29.3761 40.7292C28.6038 40.4173 27.8402 40.1306 27.1046 39.8699L25.08 39.1509L26.4874 37.5282C30.2341 33.2158 34.6451 29.332 39.5975 25.9851C55.2229 15.4236 71.1197 15.3788 81.7024 17.1994C83.7556 17.5529 85.9001 18.1776 88.0781 19.0572C94.9104 21.8165 102.689 27.4326 104.04 34.9215C104.643 38.2664 104.11 43.3961 98.1506 48.8436C97.4264 49.5074 95.592 51.6468 95.8317 53.5513C96.0076 54.9691 97.2079 56.7194 99.2108 58.4776C102.096 60.9825 103.587 63.8405 103.638 66.9664C103.743 73.4596 97.6113 79.1454 94.6635 81.8782C91.7399 84.5893 86.0657 88.8102 78.907 92.5253L77.3284 93.2883Z" fill="white"/>
    <path d="M39.5972 25.9854C55.2225 15.424 71.1195 15.3791 81.7023 17.1996C83.7554 17.5531 85.8998 18.178 88.0776 19.0576C94.9099 21.8169 102.689 27.433 104.039 34.9219C104.643 38.2668 104.11 43.3965 98.15 48.844C97.4257 49.5079 95.5918 51.6475 95.8315 53.552C96.0075 54.9697 97.2076 56.7198 99.2104 58.478C102.095 60.9828 103.587 63.8408 103.638 66.9666C103.742 73.4598 97.6111 79.146 94.6633 81.8788C91.8849 84.4552 86.6219 88.3941 79.9621 91.9676C84.139 98.6437 86.2372 103.609 86.3818 103.957L87.8717 107.532L84.3901 105.838C84.0014 105.649 77.6791 102.533 69.8333 96.5566C69.619 96.6388 69.3978 96.7255 69.1656 96.8138C61.2164 99.689 53.4978 100.977 46.2051 100.651C41.9415 100.46 37.8693 99.5909 34.1017 98.0693C23.6317 93.8409 16.59 85.0594 14.7824 73.9761C13.1708 64.087 15.3903 53.963 21.2047 44.656C19.961 40.5084 19.4186 36.9732 19.3771 36.6969L19.0616 34.5811L21.1476 35.0511C21.2873 35.0826 23.8396 35.6645 27.1448 36.7837C30.7466 32.7683 34.9316 29.1384 39.5972 25.9854ZM40.6849 58.7174L40.6843 58.7168L40.2978 59.0817C40.9543 60.3088 41.9279 61.8391 43.1441 63.5819C43.5992 64.234 44.0884 64.9158 44.608 65.6224C44.6607 65.694 44.7131 65.7663 44.7664 65.8384C47.4619 69.487 50.9455 73.7755 54.7077 78.0551C55.8254 79.3264 56.9672 80.5975 58.1209 81.8503C58.6694 82.446 59.2207 83.0376 59.773 83.6234C59.7935 83.6451 59.8139 83.6669 59.8344 83.6887C67.8934 92.2295 76.7665 98.0932 81.7352 101.029C79.0941 95.8984 73.7537 86.7014 65.6929 78.1584C64.3448 76.7296 62.9611 75.3049 61.567 73.9071C54.1502 66.4713 46.4416 59.7897 42.2616 57.2294L40.6849 58.7174ZM22.4507 48.3055C17.9476 56.407 16.2985 65.0617 17.6749 73.5054C19.3134 83.5541 25.7003 91.5177 35.1983 95.3536C38.6573 96.7506 42.4046 97.5484 46.3349 97.7247C52.9322 98.02 59.9209 96.9102 67.1265 94.4275C64.4147 92.2197 61.5894 89.694 58.8133 86.8535C58.7325 86.7709 58.6522 86.688 58.5719 86.6052C58.2818 86.3061 57.9915 86.0041 57.7028 85.6981C56.8231 84.7658 55.9209 83.7893 55.0073 82.7828C54.9308 82.6985 54.854 82.6141 54.7773 82.5294C54.5793 82.3105 54.3807 82.0902 54.1819 81.8687C54.1463 81.8291 54.111 81.7892 54.0754 81.7496C53.887 81.5394 53.698 81.3283 53.5091 81.1161C53.4438 81.0427 53.3787 80.9692 53.3134 80.8956C49.986 77.147 46.6153 73.1073 43.7756 69.3998C43.7083 69.3119 43.6416 69.2239 43.5748 69.1363C43.4378 68.9565 43.3019 68.7778 43.1675 68.5997C43.1095 68.523 43.052 68.4462 42.9946 68.3698C41.6876 66.6306 40.5144 64.9805 39.537 63.4875C39.4927 63.4199 39.4481 63.3531 39.4046 63.2861C39.3218 63.1585 39.2411 63.0318 39.1614 62.9066C39.09 62.7948 39.0199 62.6839 38.951 62.5741C38.889 62.4751 38.8286 62.3767 38.7686 62.2795C38.6873 62.1477 38.6072 62.0179 38.5298 61.8893C38.4737 61.796 38.4191 61.7033 38.3651 61.6118C38.2955 61.4941 38.2272 61.3781 38.1611 61.2634C38.1092 61.1732 38.0587 61.0837 38.0091 60.9954C37.9743 60.9337 37.9388 60.8731 37.9052 60.8123C37.8662 60.8167 37.8269 60.8192 37.788 60.8231C37.7324 60.8287 37.6769 60.8336 37.6214 60.8383C37.5662 60.843 37.5111 60.8478 37.456 60.8516C37.3798 60.8569 37.3035 60.8605 37.2273 60.8643C37.1789 60.8666 37.1306 60.8695 37.0823 60.8713C37.0174 60.8736 36.9526 60.8745 36.8878 60.8757C36.8282 60.8767 36.7687 60.8781 36.7091 60.8782C36.6049 60.8784 36.5008 60.8772 36.3968 60.8744C36.3897 60.8742 36.3825 60.874 36.3753 60.8738C35.069 60.8363 33.7814 60.5651 32.5301 60.0598C30.9962 59.4403 29.5114 58.4661 28.0938 57.1565C28.0825 57.1461 28.0709 57.1359 28.0596 57.1255C27.9674 57.0399 27.8756 56.9529 27.784 56.8645C27.741 56.823 27.6983 56.7811 27.6554 56.739C27.5884 56.6732 27.5213 56.6069 27.4546 56.5395C27.4012 56.4856 27.3482 56.431 27.295 56.3761C27.2319 56.3109 27.1683 56.2456 27.1056 56.179C27.0578 56.1285 27.0106 56.0771 26.963 56.0257C26.8938 55.951 26.8241 55.876 26.7552 55.7996C26.6467 55.6791 26.5384 55.5568 26.4309 55.4322C26.4103 55.4083 26.3906 55.3835 26.3701 55.3593C26.216 55.1783 26.0647 54.9916 25.9165 54.7993C25.8832 54.7561 25.8502 54.7122 25.817 54.6682C25.7663 54.601 25.7157 54.5333 25.6656 54.4648C25.6353 54.4234 25.6052 54.3815 25.5751 54.3394C25.5185 54.2605 25.4622 54.181 25.4066 54.1006C25.3772 54.0582 25.3477 54.0156 25.3185 53.9726C25.2688 53.8996 25.2199 53.8257 25.1709 53.7515C25.0931 53.6337 25.0159 53.5137 24.939 53.3917C24.9151 53.3537 24.8906 53.316 24.8668 53.2777C24.8177 53.1986 24.7692 53.1184 24.7205 53.0376C24.6951 52.9955 24.6697 52.9533 24.6445 52.9109C24.5974 52.8317 24.5506 52.7516 24.5038 52.6708C24.4758 52.6222 24.448 52.5734 24.4202 52.5245C24.3754 52.4457 24.3304 52.3665 24.2859 52.2863C24.269 52.2558 24.2527 52.225 24.2359 52.1944C24.0689 51.89 23.9038 51.5753 23.7418 51.2499C23.7219 51.2101 23.7025 51.1701 23.6828 51.1302C23.6397 51.0426 23.5964 50.9545 23.5536 50.8654C23.5019 50.7578 23.451 50.6496 23.4003 50.5411C23.3627 50.4603 23.3249 50.3791 23.2876 50.2972C23.2493 50.2134 23.2118 50.1292 23.1742 50.045C23.0766 49.8263 22.979 49.6041 22.8834 49.3773C22.8393 49.273 22.7973 49.1679 22.7542 49.0631C22.7156 48.9693 22.6765 48.8751 22.6382 48.78C22.5806 48.6369 22.5244 48.4934 22.4685 48.3498C22.4627 48.335 22.4565 48.3204 22.4507 48.3055ZM81.2056 20.0864C71.1517 18.3563 56.0573 18.3965 41.2379 28.4122C37.11 31.2021 33.3773 34.378 30.1197 37.8727C30.2051 37.9062 30.2909 37.9407 30.3769 37.9753C30.4087 37.9881 30.4407 38.0004 30.4725 38.0133C33.0041 39.0357 35.1607 40.128 36.9214 41.2732C37.5174 41.6608 38.0692 42.053 38.5735 42.4527C38.8583 42.6785 39.1281 42.9063 39.3831 43.1356C40.097 43.778 40.7359 44.4487 41.2981 45.1419C41.3323 45.184 41.3652 45.2269 41.3988 45.2692C41.4581 45.3438 41.5175 45.4178 41.5749 45.4928C41.6092 45.5376 41.642 45.5834 41.6757 45.6284C41.7293 45.7001 41.7833 45.771 41.8353 45.8431C41.849 45.8622 41.8622 45.8817 41.8758 45.9008C41.9467 46 42.0165 46.0992 42.0842 46.1992C42.1087 46.2353 42.1324 46.2719 42.1565 46.3081C42.2142 46.395 42.2714 46.4817 42.3269 46.5691C42.3359 46.5834 42.3445 46.5979 42.3535 46.6122C42.42 46.7179 42.4854 46.8237 42.5486 46.9302C42.5696 46.9656 42.5894 47.0017 42.61 47.0373C42.658 47.1198 42.706 47.202 42.7519 47.285C42.7797 47.3351 42.806 47.386 42.833 47.4364C42.8688 47.5029 42.905 47.5691 42.9395 47.6359C42.9657 47.6868 42.9906 47.7382 43.0161 47.7892C43.1189 47.995 43.2163 48.2017 43.3069 48.41C43.3235 48.4483 43.3394 48.4869 43.3556 48.5253C43.3915 48.6101 43.427 48.6948 43.4608 48.78C43.4795 48.8269 43.4973 48.8742 43.5153 48.9212C43.5453 48.9995 43.5751 49.0777 43.6033 49.1563C43.6186 49.1986 43.633 49.2412 43.6477 49.2836C43.6791 49.374 43.7098 49.4645 43.7389 49.5554C43.7494 49.588 43.7591 49.6208 43.7693 49.6535C43.7971 49.7429 43.8242 49.8324 43.8498 49.9221C43.8652 49.9763 43.8795 50.0307 43.8941 50.0849C43.914 50.1586 43.934 50.2322 43.9524 50.306C43.9618 50.3438 43.9706 50.3816 43.9796 50.4194C44.003 50.5173 44.0254 50.6152 44.0461 50.7134C44.0524 50.7429 44.0579 50.7725 44.0639 50.802C44.0836 50.8995 44.1025 50.997 44.1196 51.0947C44.1256 51.1287 44.1311 51.1627 44.1367 51.1967C44.1517 51.2868 44.1658 51.3769 44.1785 51.4672C44.1861 51.5208 44.1926 51.5745 44.1994 51.6281C44.2105 51.715 44.2209 51.802 44.2299 51.8891C44.2328 51.918 44.2353 51.947 44.2381 51.9759C44.2473 52.0729 44.2561 52.17 44.2628 52.2673C44.2655 52.3063 44.2675 52.3454 44.2698 52.3845C44.2753 52.4799 44.2799 52.5753 44.2831 52.6708C44.2844 52.7111 44.2847 52.7515 44.2856 52.7918C44.2874 52.8737 44.2894 52.9556 44.2894 53.0376C44.2894 53.1016 44.288 53.1655 44.2869 53.2296C44.2857 53.2982 44.2842 53.3668 44.2818 53.4354C44.2796 53.4973 44.2762 53.5591 44.2729 53.621C44.2691 53.6943 44.2655 53.7676 44.2603 53.8409C44.2562 53.8972 44.2512 53.9536 44.2463 54.01C44.2398 54.0847 44.2328 54.1595 44.2248 54.2343C44.2189 54.2892 44.2125 54.344 44.2058 54.399C44.196 54.4796 44.1857 54.5603 44.1741 54.641C44.1685 54.6804 44.1624 54.7199 44.1564 54.7594C44.1471 54.8198 44.1388 54.8808 44.1285 54.9412C44.1758 54.9711 44.2226 55.0025 44.2704 55.0331C44.3688 55.0961 44.4687 55.1602 44.5694 55.2263C44.68 55.2989 44.7918 55.3737 44.9051 55.4499C45.0012 55.5145 45.0986 55.5798 45.1966 55.6469C45.299 55.7171 45.4019 55.7894 45.5063 55.8623C45.6178 55.9402 45.7309 56.0189 45.8446 56.0999C45.9475 56.1731 46.051 56.2478 46.1556 56.3235C46.2683 56.4049 46.3825 56.487 46.4971 56.5712C46.6276 56.667 46.7588 56.7652 46.8918 56.8645C46.9873 56.9358 47.0839 57.0074 47.1806 57.0805C47.6361 57.4246 48.1054 57.7873 48.5857 58.1675C48.6828 58.2444 48.7797 58.323 48.8777 58.4013C49.034 58.526 49.1918 58.652 49.3503 58.7801C49.4639 58.872 49.5777 58.9653 49.6924 59.0589C49.8238 59.166 49.9562 59.2739 50.0889 59.3832C50.2071 59.4805 50.3257 59.5788 50.445 59.6778C50.5969 59.8039 50.75 59.931 50.9036 60.0598C51.0164 60.1543 51.1296 60.2496 51.2431 60.3455C51.3855 60.4656 51.5285 60.5869 51.672 60.7091C51.8265 60.8406 51.9812 60.9738 52.137 61.1075C52.2225 61.181 52.3083 61.2545 52.3942 61.3286C52.5737 61.4836 52.7542 61.6397 52.9352 61.7974C53.0294 61.8794 53.1238 61.9617 53.2183 62.0445C53.3988 62.2024 53.5796 62.3617 53.7612 62.5221C53.7988 62.5552 53.8364 62.5883 53.874 62.6216C54.1047 62.8257 54.3365 63.0315 54.5689 63.2392C54.6869 63.3447 54.8047 63.4509 54.923 63.5572C55.0516 63.6727 55.1805 63.7885 55.3095 63.905C55.4266 64.0108 55.5437 64.1171 55.661 64.2236C56.2128 64.7246 56.7674 65.2337 57.3227 65.7491C57.9853 66.3641 58.6486 66.9882 59.3099 67.6172C59.4989 67.797 59.6877 67.977 59.8762 68.1576C60.03 68.3049 60.184 68.452 60.3374 68.5997C60.4943 68.7508 60.6505 68.9025 60.8068 69.0539C60.8998 69.1439 60.9928 69.2337 61.0856 69.3238C61.2547 69.4881 61.4233 69.6528 61.5917 69.8173C61.7332 69.9556 61.8746 70.0938 62.0155 70.2322C62.1131 70.328 62.2103 70.424 62.3075 70.5198C62.4854 70.6951 62.6624 70.8705 62.839 71.0456C62.939 71.1448 63.0391 71.2436 63.1387 71.3427C63.2656 71.469 63.392 71.5954 63.5181 71.7215C63.7009 71.9043 63.8831 72.0866 64.0642 72.2689C64.1097 72.3147 64.155 72.3606 64.2004 72.4063C64.4145 72.6222 64.6275 72.8376 64.8389 73.0525C65.2243 73.4442 65.6047 73.8342 65.9798 74.2213C66.3655 74.6192 66.7457 75.014 67.1189 75.4052C67.3571 75.6551 67.5932 75.9031 67.8258 76.1496C67.8737 76.2003 67.9206 76.252 67.9683 76.3029C68.3771 76.7381 68.7792 77.1741 69.1739 77.611C69.2083 77.6492 69.2427 77.6874 69.2771 77.7257C72.8962 81.7452 75.9218 85.8088 78.372 89.499C84.8583 86.0453 89.9927 82.2153 92.6704 79.73C95.101 77.4775 100.793 72.2013 100.709 67.0154C100.671 64.7246 99.5504 62.6528 97.2834 60.6844C94.662 58.3826 93.1978 56.1068 92.9238 53.915C92.4591 50.1979 95.7927 47.0303 96.1754 46.6819C100.167 43.0319 101.843 39.2506 101.157 35.442C100.017 29.1181 92.8076 24.1274 86.9804 21.774C85.0239 20.9838 83.0272 20.4002 81.2056 20.0864ZM22.6813 38.4726C22.9878 39.9684 23.4736 42.0722 24.163 44.3044L24.2023 44.4286C25.4623 48.4577 26.9954 51.5954 28.6379 53.5051C28.6419 53.5098 28.646 53.5144 28.65 53.5191C29.6158 54.639 30.6123 55.552 31.6274 56.2519C33.0787 57.2503 34.5756 57.8129 36.1086 57.9275C36.4875 57.9553 36.8684 57.9563 37.2508 57.93L37.8374 57.3763L38.9872 56.2893L38.9878 56.2905L41.2918 54.1164C41.4091 53.2222 41.378 52.3753 41.2379 51.5781C41.1093 50.8461 40.8888 50.1559 40.6019 49.5104C40.5591 49.4142 40.5151 49.3189 40.4695 49.2247C40.4239 49.1303 40.3765 49.0371 40.3282 48.9447C40.1352 48.5752 39.9222 48.2217 39.6948 47.8849C39.5811 47.7166 39.4638 47.5526 39.3438 47.3926C38.7434 46.5924 38.0727 45.8969 37.425 45.3142C35.6379 43.7075 32.93 42.1653 29.3753 40.7297C26.8336 39.7032 24.3661 38.9432 22.6813 38.4726Z" fill="white"/>
</svg>
