<svg width="46" height="46" viewBox="0 0 46 46" fill="none" xmlns="http://www.w3.org/2000/svg">
<path d="M23 4.15663C29.0964 4.15663 29.9277 4.15663 32.4217 4.15663C34.6386 4.15663 35.747 4.71084 36.5783 4.98795C37.6867 5.54217 38.5181 5.81928 39.3494 6.6506C40.1807 7.48193 40.7349 8.31326 41.0121 9.42169C41.2892 10.253 41.5663 11.3614 41.8434 13.5783C41.8434 16.0723 41.8434 16.6265 41.8434 23C41.8434 29.3735 41.8434 29.9277 41.8434 32.4217C41.8434 34.6386 41.2892 35.747 41.0121 36.5783C40.4578 37.6867 40.1807 38.5181 39.3494 39.3494C38.5181 40.1807 37.6867 40.7349 36.5783 41.0121C35.747 41.2892 34.6386 41.5663 32.4217 41.8434C29.9277 41.8434 29.3735 41.8434 23 41.8434C16.6265 41.8434 16.0723 41.8434 13.5783 41.8434C11.3614 41.8434 10.253 41.2892 9.42169 41.0121C8.31326 40.4578 7.48193 40.1807 6.6506 39.3494C5.81928 38.5181 5.26506 37.6867 4.98795 36.5783C4.71084 35.747 4.43374 34.6386 4.15663 32.4217C4.15663 29.9277 4.15663 29.3735 4.15663 23C4.15663 16.6265 4.15663 16.0723 4.15663 13.5783C4.15663 11.3614 4.71084 10.253 4.98795 9.42169C5.54217 8.31326 5.81928 7.48193 6.6506 6.6506C7.48193 5.81928 8.31326 5.26506 9.42169 4.98795C10.253 4.71084 11.3614 4.43374 13.5783 4.15663C16.0723 4.15663 16.9036 4.15663 23 4.15663ZM23 0C16.6265 0 16.0723 0 13.5783 0C11.0843 0 9.42169 0.554218 8.03615 1.10844C6.6506 1.66265 5.26506 2.49398 3.87952 3.87952C2.49398 5.26506 1.93976 6.3735 1.10844 8.03615C0.554218 9.42169 0.277108 11.0843 0 13.5783C0 16.0723 0 16.9036 0 23C0 29.3735 0 29.9277 0 32.4217C0 34.9157 0.554218 36.5783 1.10844 37.9639C1.66265 39.3494 2.49398 40.7349 3.87952 42.1205C5.26506 43.506 6.3735 44.0602 8.03615 44.8916C9.42169 45.4458 11.0843 45.7229 13.5783 46C16.0723 46 16.9036 46 23 46C29.0964 46 29.9277 46 32.4217 46C34.9157 46 36.5783 45.4458 37.9639 44.8916C39.3494 44.3374 40.7349 43.506 42.1205 42.1205C43.506 40.7349 44.0602 39.6265 44.8916 37.9639C45.4458 36.5783 45.7229 34.9157 46 32.4217C46 29.9277 46 29.0964 46 23C46 16.9036 46 16.0723 46 13.5783C46 11.0843 45.4458 9.42169 44.8916 8.03615C44.3374 6.6506 43.506 5.26506 42.1205 3.87952C40.7349 2.49398 39.6265 1.93976 37.9639 1.10844C36.5783 0.554218 34.9157 0.277108 32.4217 0C29.9277 0 29.3735 0 23 0Z" fill="#3E2727"/>
<path d="M23 11.0843C16.3494 11.0843 11.0843 16.3494 11.0843 23C11.0843 29.6506 16.3494 34.9157 23 34.9157C29.6506 34.9157 34.9157 29.6506 34.9157 23C34.9157 16.3494 29.6506 11.0843 23 11.0843ZM23 30.759C18.8434 30.759 15.241 27.4337 15.241 23C15.241 18.8434 18.5663 15.241 23 15.241C27.1566 15.241 30.759 18.5663 30.759 23C30.759 27.1566 27.1566 30.759 23 30.759Z" fill="#3E2727"/>
<path d="M35.1928 13.5783C36.7232 13.5783 37.9639 12.3377 37.9639 10.8072C37.9639 9.2768 36.7232 8.03615 35.1928 8.03615C33.6623 8.03615 32.4217 9.2768 32.4217 10.8072C32.4217 12.3377 33.6623 13.5783 35.1928 13.5783Z" fill="#3E2727"/>
</svg>
