<svg width="48" height="48" viewBox="0 0 48 48" fill="none" xmlns="http://www.w3.org/2000/svg">
<path fill-rule="evenodd" clip-rule="evenodd" d="M43.0001 6.21671C43.6819 6.54714 44 7.17772 44 8.19854C44 9.1186 37.6732 39.8617 37.2923 40.7931C36.8281 41.9273 35.6088 42.3245 34.4601 41.7157C34.1721 41.5629 31.7995 39.8246 29.1879 37.8527L24.4394 34.2674L22.0309 36.6235C19.1248 39.4664 18.9134 39.6447 18.3007 39.7699C17.7176 39.8889 17.73 40.424 18.1729 34.2958L18.5003 29.7665L27.5803 21.387C32.5743 16.7783 36.6603 12.9048 36.6603 12.7792C36.6603 12.6212 36.4973 12.5511 36.1306 12.5517C35.6936 12.5522 33.6382 13.8152 24.3723 19.7771C18.1965 23.7506 13.0778 27.0017 12.9976 27.0017C12.677 27.0017 3.0367 23.8622 2.65443 23.6333C2.04441 23.2681 1.82739 22.6242 2.14641 22.1267C2.49992 21.5758 3.10177 21.2326 5.10725 20.4387C9.93888 18.5256 41.1586 6.24282 41.5787 6.08966C42.0012 5.93557 42.5145 5.98148 43.0001 6.21671Z" fill="#3E2727"/>
</svg>
