<svg width="115" height="110" viewBox="0 0 115 110" fill="none" xmlns="http://www.w3.org/2000/svg">
    <path d="M108.519 0C112.088 0 115 2.99089 115 6.6682V79.8073C115 83.4846 112.088 86.48 108.519 86.48H74.3937C73.9553 86.48 73.6 86.8353 73.6 87.2737C73.6 87.6908 73.923 88.0368 74.3391 88.0654L98.6928 89.7425C100.623 89.8754 102.12 91.4795 102.12 93.4138V105.8C102.12 107.832 100.472 109.48 98.44 109.48H16.56C14.5276 109.48 12.88 107.832 12.88 105.8V93.409C12.88 91.4797 14.3701 89.8779 16.2944 89.7386L40.7069 87.9722C41.0975 87.9439 41.4 87.6187 41.4 87.2271C41.4 86.8145 41.0655 86.48 40.653 86.48H6.47684C2.91177 86.48 0.000169412 83.4846 0 79.8073V6.6682C0.000138966 2.99089 2.91175 0 6.47684 0H108.519Z" fill="#F6CFEF"/>
    <path d="M16.8542 12.2537C15.5364 12.2537 14.4637 13.33 14.4637 14.6478V70.3604C14.4637 71.6817 15.5364 72.7544 16.8542 72.7544H98.8976C100.215 72.7544 101.288 71.6817 101.288 70.3604V14.6478C101.288 13.33 100.215 12.2537 98.8976 12.2537H16.8542ZM98.8976 75.5747H16.8542C13.9877 75.5747 11.647 73.234 11.647 70.3604V14.6478C11.647 11.7742 13.9877 9.43703 16.8542 9.43703H98.8976C101.768 9.43703 104.108 11.7742 104.108 14.6478V70.3604C104.108 73.234 101.768 75.5747 98.8976 75.5747Z" fill="#A74A96"/>
    <path d="M52.8058 93.0264H62.9538V76.2611H52.8058V93.0264ZM65.7669 95.8467H49.9819V73.4444H65.7669V95.8467Z" fill="#A74A96"/>
    <path d="M24.7539 99.4917H90.9981V96.9237L63.6053 95.8474H50.6868L24.7539 96.9201V99.4917ZM93.8184 102.312H21.9336V94.2135L50.63 93.0307L63.655 93.0272L93.8184 94.21V102.312Z" fill="#A74A96"/>
    <path d="M57.8762 20.5111C49.8949 20.5111 43.4055 27.0041 43.4055 34.9854C43.4055 42.9667 49.8949 49.4561 57.8762 49.4561C65.8539 49.4561 72.3469 42.9667 72.3469 34.9854C72.3469 27.0041 65.8539 20.5111 57.8762 20.5111ZM57.8762 52.2764C48.3427 52.2764 40.5852 44.5189 40.5852 34.9854C40.5852 25.4519 48.3427 17.6944 57.8762 17.6944C67.4132 17.6944 75.1707 25.4519 75.1707 34.9854C75.1707 44.5189 67.4132 52.2764 57.8762 52.2764Z" fill="#A74A96"/>
    <path d="M57.8771 45.6743C51.9844 45.6743 47.1892 40.8792 47.1892 34.9829H50.0059C50.0059 39.3234 53.5366 42.8541 57.8771 42.8541C62.2176 42.8541 65.7483 39.3234 65.7483 34.9829H68.5721C68.5721 40.8792 63.7698 45.6743 57.8771 45.6743Z" fill="#A74A96"/>
    <path d="M56.1871 33.293H53.3704V24.4592H56.1871V33.293Z" fill="#A74A96"/>
    <path d="M62.3857 33.293H59.5654V24.4592H62.3857V33.293Z" fill="#A74A96"/>
    <path d="M102.438 60.167H13.3223V57.3503H102.438V60.167Z" fill="#A74A96"/>
</svg>
