<svg width="148" height="112" viewBox="0 0 148 112" fill="none" xmlns="http://www.w3.org/2000/svg">
    <path fill-rule="evenodd" clip-rule="evenodd" d="M38.473 90.959C39.0525 91.23 39.6398 91.4872 40.2341 91.7305C39.937 91.6089 39.6418 91.4834 39.3483 91.3548C39.0548 91.2262 38.7626 91.0945 38.473 90.959ZM96.4296 63.6026C96.4321 63.5905 96.4351 63.5786 96.4375 63.5665L96.4588 63.4587L96.5266 63.1156C96.5045 63.2302 96.4819 63.3445 96.4588 63.4587C96.4491 63.5067 96.4394 63.5546 96.4296 63.6026ZM51.1186 15.8516C50.8239 15.8816 50.5302 15.9148 50.2374 15.9512C50.3771 15.9338 50.517 15.9174 50.6571 15.9014L51.1186 15.8516ZM57.1661 15.698C57.4012 15.7098 57.6357 15.7239 57.8697 15.7398C57.641 15.7242 57.4118 15.7102 57.182 15.6985L57.1661 15.698ZM55.1522 15.6471C55.3143 15.6471 55.4761 15.6481 55.6377 15.6501C55.9186 15.6536 56.1989 15.6601 56.4784 15.6694C56.2069 15.6604 55.9347 15.6538 55.6619 15.6503L55.6377 15.6501L55.1522 15.6471ZM94.6435 56.169V56.1605C94.6407 56.2729 94.6362 56.3852 94.6324 56.4975C94.6361 56.3881 94.6407 56.2786 94.6435 56.169Z" fill="#89C946"/>
    <path fill-rule="evenodd" clip-rule="evenodd" d="M55.1522 0C85.5746 9.42127e-05 110.303 24.729 110.303 55.1506C110.303 58.6603 109.973 62.0941 109.344 65.4229C108.849 68.044 110.768 70.6096 113.435 70.6096H138.713C142.13 70.6096 143.974 74.619 141.749 77.2135L115.508 107.814C114.141 109.408 112.214 110.4 110.119 110.544C99.2586 111.291 63.8224 113.22 43.5477 108.299C19.3935 102.436 0 81.0883 0 55.1506C0.000105433 24.7285 24.7302 0 55.1522 0ZM40.2341 91.7305C39.6398 91.4872 39.0525 91.23 38.473 90.959C38.7626 91.0945 39.0548 91.2262 39.3483 91.3548C39.6418 91.4834 39.937 91.6089 40.2341 91.7305ZM38.473 90.959C39.0525 91.23 39.6398 91.4872 40.2341 91.7305C39.937 91.6089 39.6418 91.4834 39.3483 91.3548C39.0548 91.2262 38.7626 91.0945 38.473 90.959ZM96.4375 63.5665C96.4351 63.5786 96.4321 63.5905 96.4296 63.6026C96.4394 63.5546 96.4491 63.5067 96.4588 63.4587L96.5266 63.1156C96.5045 63.2302 96.4819 63.3445 96.4588 63.4587L96.4375 63.5665ZM50.2374 15.9512C50.5302 15.9148 50.8239 15.8816 51.1186 15.8516L50.6571 15.9014C50.517 15.9174 50.3771 15.9338 50.2374 15.9512ZM57.8697 15.7398C57.6357 15.7239 57.4012 15.7098 57.1661 15.698L57.182 15.6985C57.4118 15.7102 57.641 15.7242 57.8697 15.7398ZM55.1522 15.6471C55.3143 15.6471 55.4761 15.6481 55.6377 15.6501L55.6619 15.6503C55.9347 15.6538 56.2069 15.6604 56.4784 15.6694C56.1989 15.6601 55.9186 15.6536 55.6377 15.6501L55.1522 15.6471ZM94.6435 56.1605V56.169C94.6407 56.2786 94.6361 56.3881 94.6324 56.4975C94.6362 56.3852 94.6407 56.2729 94.6435 56.1605Z" fill="#89C946"/>
    <path d="M55.152 15.6468C33.3686 15.6468 15.6472 33.3682 15.6472 55.1506C15.6472 76.9329 33.3686 94.6543 55.152 94.6543C76.9344 94.6543 94.6563 76.9329 94.6563 55.1506C94.6563 33.3682 76.9344 15.6468 55.152 15.6468ZM55.152 97.2803C31.921 97.2803 13.0212 78.381 13.0212 55.1506C13.0212 31.9201 31.921 13.0209 55.152 13.0209C78.383 13.0209 97.2817 31.9201 97.2817 55.1506C97.2817 78.381 78.383 97.2803 55.152 97.2803Z" fill="white"/>
    <path d="M71.9911 29.5993C70.3379 29.5993 68.6929 30.0187 67.2313 30.813C64.8847 32.0864 63.1763 34.1975 62.4172 36.7578C61.6582 39.3186 61.9425 42.0194 63.2164 44.3643C64.9699 47.592 68.3408 49.5967 72.0161 49.5967C73.6649 49.5967 75.3083 49.1779 76.7683 48.3852C79.1191 47.1086 80.8314 44.9942 81.5888 42.4318C82.3468 39.8725 82.0614 37.1717 80.7864 34.8279C79.0356 31.6019 75.6663 29.5993 71.9911 29.5993ZM72.0161 52.2227C67.3772 52.2227 63.1209 49.6922 60.9084 45.6176C59.2992 42.6564 58.9416 39.2454 59.8987 36.0123C60.8574 32.7787 63.0162 30.1126 65.9774 28.505C67.8232 27.5029 69.9023 26.9734 71.9911 26.9734C76.6305 26.9734 80.8846 29.5028 83.0933 33.5741C84.7025 36.5331 85.0639 39.9436 84.1068 43.1767C83.1492 46.4125 80.9882 49.0818 78.0216 50.6921C76.1796 51.6937 74.1022 52.2227 72.0161 52.2227Z" fill="white"/>
    <path d="M38.7668 60.7032C37.1148 60.7032 35.4697 61.1231 34.0081 61.9185C31.6621 63.1924 29.952 65.3035 29.193 67.8638C28.435 70.4252 28.7188 73.1276 29.9938 75.4736C31.7429 78.6985 35.1117 80.7016 38.7853 80.7016C40.4373 80.7016 42.0851 80.2817 43.5478 79.4874C45.8938 78.2124 47.6039 76.1008 48.3619 73.541C49.1203 70.9818 48.836 68.2821 47.5616 65.9388C45.8097 62.709 42.4404 60.7032 38.7668 60.7032ZM38.7853 83.3281C34.1475 83.3281 29.8945 80.7982 27.6857 76.7264C26.076 73.7646 25.7174 70.3519 26.6755 67.1183C27.6337 63.8847 29.7919 61.2191 32.7543 59.611C34.5984 58.6078 36.678 58.0772 38.7668 58.0772C43.404 58.0772 47.6587 60.6093 49.8702 64.685C51.4783 67.6446 51.8374 71.0551 50.8793 74.2876C49.9222 77.519 47.764 80.1851 44.8011 81.7949C42.9542 82.7975 40.8746 83.3281 38.7853 83.3281Z" fill="white"/>
    <path d="M71.99 60.7038C70.3379 60.7038 68.6929 61.1232 67.2313 61.9175C64.8847 63.1914 63.1763 65.3036 62.4172 67.865C61.6582 70.4263 61.9419 73.1288 63.2164 75.4748C64.9688 78.6986 68.3397 80.7012 72.016 80.7012C73.6649 80.7012 75.3088 80.2823 76.7683 79.4897C79.117 78.2147 80.8282 76.1025 81.5872 73.5417C82.3468 70.9814 82.0609 68.28 80.7864 65.9356C79.034 62.708 75.6642 60.7038 71.99 60.7038ZM72.016 83.3271C67.3772 83.3271 63.1209 80.7989 60.9084 76.7281C59.2992 73.7658 58.9416 70.3536 59.8987 67.1195C60.8568 63.8853 63.0162 61.2187 65.9774 59.61C67.8232 58.6079 69.9012 58.0779 71.99 58.0779C76.6277 58.0779 80.883 60.6083 83.0933 64.6818C84.7036 67.642 85.0639 71.0541 84.1057 74.2882C83.1476 77.5213 80.9861 80.1885 78.0216 81.7977C76.1796 82.7987 74.1022 83.3271 72.016 83.3271Z" fill="white"/>
    <path d="M55.1313 52.1297C53.215 52.1297 51.6557 53.6895 51.6557 55.6074C51.6557 57.5237 53.215 59.083 55.1313 59.083C57.0482 59.083 58.6075 57.5237 58.6075 55.6074C58.6075 53.6895 57.0482 52.1297 55.1313 52.1297ZM55.1313 61.709C51.7664 61.709 49.0298 58.9718 49.0298 55.6074C49.0298 52.242 51.7664 49.5037 55.1313 49.5037C58.4957 49.5037 61.2334 52.242 61.2334 55.6074C61.2334 58.9718 58.4957 61.709 55.1313 61.709Z" fill="white"/>
    <path d="M38.7675 29.5995C37.1159 29.5995 35.4698 30.0195 34.0082 30.8138C31.6611 32.0877 29.951 34.1998 29.192 36.7623C28.434 39.3221 28.7189 42.0218 29.9917 44.3646C31.7414 47.5911 35.1096 49.5948 38.7854 49.5948C40.4375 49.5948 42.0852 49.1743 43.5479 48.3805C45.8934 47.1077 47.6029 44.9961 48.3609 42.4347C49.1205 39.8738 48.8362 37.1725 47.5628 34.8281C45.812 31.6032 42.4416 29.5995 38.7675 29.5995ZM38.7854 52.2207C34.1449 52.2207 29.8919 49.6902 27.6848 45.6173C26.0761 42.6604 25.7164 39.2499 26.6734 36.0174C27.6316 32.7811 29.791 30.1139 32.7555 28.5063C34.5996 27.5042 36.6792 26.9736 38.7675 26.9736C43.4052 26.9736 47.6604 29.503 49.8713 33.5748C51.4795 36.5355 51.8376 39.9476 50.8794 43.1807C49.9213 46.4143 47.763 49.0804 44.8012 50.6885C42.9543 51.6906 40.8737 52.2207 38.7854 52.2207Z" fill="white"/>
    <path d="M107.388 97.2812H55.1523V94.6553H106.18L113.381 86.2577H83.8067V83.6317H119.093L107.388 97.2812Z" fill="white"/>
    <path d="M79.2976 47.4072C77.0161 40.2851 71.7365 34.5623 64.8125 31.7063L65.8135 29.2779C73.4548 32.4301 79.2818 38.7459 81.7987 46.6059L79.2976 47.4072Z" fill="white"/>
    <path d="M31.1367 47.0098L28.6501 46.1666C31.2864 38.3886 37.1774 32.1845 44.8139 29.1462L45.7839 31.5866C38.8637 34.3396 33.5255 39.9615 31.1367 47.0098Z" fill="white"/>
    <path d="M44.8205 81.1572C37.177 78.1195 31.2822 71.9121 28.6465 64.1287L31.133 63.2861C33.5219 70.3398 38.8638 75.9639 45.7911 78.7168L44.8205 81.1572Z" fill="white"/>
    <path d="M66.0429 80.9287L65.0186 78.51C71.9155 75.5933 77.1424 69.827 79.362 62.6903L81.8686 63.4699C79.4201 71.3467 73.6516 77.7098 66.0429 80.9287Z" fill="white"/>
    <path d="M73.4478 50.8691C71.9574 44.4741 67.1422 39.2574 60.8828 37.2554L61.6831 34.7543C68.8176 37.0357 74.305 42.9826 76.0064 50.2729L73.4478 50.8691Z" fill="white"/>
    <path d="M36.8819 50.7578L34.3281 50.1464C36.1055 42.7259 41.7578 36.7746 49.0801 34.6136L49.8229 37.1322C43.4007 39.0278 38.4412 44.2488 36.8819 50.7578Z" fill="white"/>
    <path d="M49.078 75.6875C41.7546 73.5254 36.1034 67.572 34.3276 60.1499L36.882 59.539C38.4396 66.0496 43.3969 71.2722 49.8202 73.169L49.078 75.6875Z" fill="white"/>
    <path d="M61.6816 75.5479L60.8813 73.0467C67.1402 71.0447 71.9554 65.8286 73.4458 59.4357L76.0034 60.0325C74.3035 67.3201 68.8162 73.2659 61.6816 75.5479Z" fill="white"/>
</svg>
