<svg width="119" height="140" viewBox="0 0 119 140" fill="none" xmlns="http://www.w3.org/2000/svg">
    <path d="M59.8555 0C69.5764 0.000247527 77.2946 7.9513 77.2949 17.5186C77.2949 20.0259 76.7638 22.4214 75.8076 24.5918C91.7787 30.4629 103.732 44.6963 105.267 62.124L115.47 69.7324C117.894 71.5407 119.086 74.5674 118.543 77.543L114.489 99.7627C113.956 102.689 111.835 105.073 108.991 105.945L100.226 108.632L100.169 109.094C99.9458 110.892 99.1156 112.561 97.8154 113.824L96.8857 114.728L96.6455 114.95C96.3608 115.209 95.9856 115.529 95.5156 115.895C92.5261 128.799 82.0019 139.536 67.7676 139.536H51.2021C36.6559 139.536 25.9764 128.328 23.2588 115.046L22.4951 114.412C20.9793 113.153 19.9845 111.375 19.7031 109.425L19.6416 108.999L9.68066 105.945C6.83728 105.073 4.71645 102.689 4.18262 99.7637L0.129883 77.543C-0.412989 74.5667 0.778506 71.5396 3.2041 69.7314L13.7217 61.8906C15.3641 44.3364 27.582 30.0551 43.8027 24.3584C42.9655 22.3807 42.4797 20.2225 42.4229 17.9668L42.417 17.5186L42.4229 17.0723C42.6588 7.70536 50.2862 0.00021206 59.8555 0Z" fill="#FFA045"/>
    <path d="M59.8555 0C69.5764 0.000247527 77.2946 7.9513 77.2949 17.5186C77.2949 20.0259 76.7638 22.4214 75.8076 24.5918C91.7787 30.4629 103.732 44.6963 105.267 62.124L115.47 69.7324C117.894 71.5407 119.086 74.5674 118.543 77.543L114.489 99.7627C113.956 102.689 111.835 105.073 108.991 105.945L100.226 108.632L100.169 109.094C99.9458 110.892 99.1156 112.561 97.8154 113.824L96.8857 114.728L96.6455 114.95C96.3608 115.209 95.9856 115.529 95.5156 115.895C92.5261 128.799 82.0019 139.536 67.7676 139.536H51.2021C36.6559 139.536 25.9764 128.328 23.2588 115.046L22.4951 114.412C20.9793 113.153 19.9845 111.375 19.7031 109.425L19.6416 108.999L9.68066 105.945C6.83728 105.073 4.71645 102.689 4.18262 99.7637L0.129883 77.543C-0.412989 74.5667 0.778506 71.5396 3.2041 69.7314L13.7217 61.8906C15.3641 44.3364 27.582 30.0551 43.8027 24.3584C42.9655 22.3807 42.4797 20.2225 42.4229 17.9668L42.417 17.5186L42.4229 17.0723C42.6588 7.70536 50.2862 0.00021206 59.8555 0Z" stroke="white"/>
    <mask id="path-2-inside-1_8_246" fill="white">
    <path d="M32.1809 105.633C34.193 107.063 43.0149 112.663 57.8395 112.663C77.259 112.663 85.7768 107.082 87.605 105.686L92.5415 65.8461C92.489 48.6178 77.6794 34.6144 59.4837 34.6144C41.2956 34.6144 26.4861 48.6102 26.4222 65.8347L32.1809 105.633ZM57.8395 115.672C39.7978 115.672 30.2513 107.963 29.8496 107.636L29.4067 107.268L23.4453 65.9409C23.4453 47.0092 39.6138 31.6058 59.4837 31.6058C79.3537 31.6058 95.5222 47.0092 95.5222 65.9409L95.5109 66.1268L90.4167 107.192L90.0338 107.564C89.6847 107.898 81.2833 115.672 57.8395 115.672Z"/>
    </mask>
    <path d="M32.1809 105.633C34.193 107.063 43.0149 112.663 57.8395 112.663C77.259 112.663 85.7768 107.082 87.605 105.686L92.5415 65.8461C92.489 48.6178 77.6794 34.6144 59.4837 34.6144C41.2956 34.6144 26.4861 48.6102 26.4222 65.8347L32.1809 105.633ZM57.8395 115.672C39.7978 115.672 30.2513 107.963 29.8496 107.636L29.4067 107.268L23.4453 65.9409C23.4453 47.0092 39.6138 31.6058 59.4837 31.6058C79.3537 31.6058 95.5222 47.0092 95.5222 65.9409L95.5109 66.1268L90.4167 107.192L90.0338 107.564C89.6847 107.898 81.2833 115.672 57.8395 115.672Z" fill="#FFA045"/>
    <path d="M32.1809 105.633L30.4138 108.119L29.3493 107.362L29.1623 106.07L32.1809 105.633ZM87.605 105.686L90.6318 106.061L90.4743 107.333L89.4562 108.11L87.605 105.686ZM92.5415 65.8461L95.5915 65.8368L95.5921 66.0297L95.5684 66.2211L92.5415 65.8461ZM26.4222 65.8347L23.4037 66.2715L23.3714 66.0486L23.3723 65.8234L26.4222 65.8347ZM29.8496 107.636L27.9266 110.004L27.9136 109.993L27.9006 109.982L29.8496 107.636ZM29.4067 107.268L27.4576 109.614L26.5554 108.865L26.3879 107.704L29.4067 107.268ZM23.4453 65.9409L20.4266 66.3764L20.3953 66.1598V65.9409H23.4453ZM95.5222 65.9409H98.5722V66.0331L98.5666 66.1252L95.5222 65.9409ZM95.5109 66.1268L98.5554 66.3111L98.5496 66.407L98.5377 66.5023L95.5109 66.1268ZM90.4167 107.192L93.4436 107.568L93.3114 108.633L92.5415 109.381L90.4167 107.192ZM90.0338 107.564L92.1586 109.752L92.1502 109.76L92.1418 109.769L90.0338 107.564ZM32.1809 105.633L33.948 103.147C35.6002 104.322 43.8162 109.613 57.8395 109.613V112.663V115.713C42.2137 115.713 32.7859 109.805 30.4138 108.119L32.1809 105.633ZM57.8395 112.663V109.613C76.6297 109.613 84.4881 104.229 85.7538 103.262L87.605 105.686L89.4562 108.11C87.0655 109.936 77.8882 115.713 57.8395 115.713V112.663ZM87.605 105.686L84.5781 105.311L89.5147 65.471L92.5415 65.8461L95.5684 66.2211L90.6318 106.061L87.605 105.686ZM92.5415 65.8461L89.4915 65.8554C89.4446 50.4594 76.1542 37.6644 59.4837 37.6644V34.6144V31.5644C79.2047 31.5644 95.5334 46.7762 95.5915 65.8368L92.5415 65.8461ZM59.4837 34.6144V37.6644C42.8206 37.6644 29.5293 50.4526 29.4722 65.846L26.4222 65.8347L23.3723 65.8234C23.4429 46.7679 39.7706 31.5644 59.4837 31.5644V34.6144ZM26.4222 65.8347L29.4408 65.3979L35.1994 105.196L32.1809 105.633L29.1623 106.07L23.4037 66.2715L26.4222 65.8347ZM57.8395 115.672V118.722C38.8747 118.722 28.6694 110.607 27.9266 110.004L29.8496 107.636L31.7726 105.269C31.8333 105.318 40.7208 112.622 57.8395 112.622V115.672ZM29.8496 107.636L27.9006 109.982L27.4576 109.614L29.4067 107.268L31.3557 104.922L31.7987 105.29L29.8496 107.636ZM29.4067 107.268L26.3879 107.704L20.4266 66.3764L23.4453 65.9409L26.4641 65.5055L32.4254 106.833L29.4067 107.268ZM23.4453 65.9409H20.3953C20.3953 45.1872 38.0702 28.5558 59.4837 28.5558V31.6058V34.6558C41.1574 34.6558 26.4953 48.8312 26.4953 65.9409H23.4453ZM59.4837 31.6058V28.5558C80.8973 28.5558 98.5722 45.1872 98.5722 65.9409H95.5222H92.4722C92.4722 48.8312 77.8101 34.6558 59.4837 34.6558V31.6058ZM95.5222 65.9409L98.5666 66.1252L98.5554 66.3111L95.5109 66.1268L92.4665 65.9426L92.4778 65.7567L95.5222 65.9409ZM95.5109 66.1268L98.5377 66.5023L93.4436 107.568L90.4167 107.192L87.3899 106.817L92.4841 65.7514L95.5109 66.1268ZM90.4167 107.192L92.5415 109.381L92.1586 109.752L90.0338 107.564L87.9091 105.376L88.292 105.004L90.4167 107.192ZM90.0338 107.564L92.1418 109.769C91.1981 110.671 82.0304 118.722 57.8395 118.722V115.672V112.622C80.5361 112.622 88.1713 105.125 87.9259 105.36L90.0338 107.564Z" fill="white" mask="url(#path-2-inside-1_8_246)"/>
    <mask id="path-4-inside-2_8_246" fill="white">
    <path d="M67.7675 129.624H51.2011C40.8888 129.624 32.4949 120.097 32.4949 108.393H35.4793C35.4793 118.439 42.5293 126.612 51.2011 126.612H67.7675C76.4393 126.612 83.4893 118.439 83.4893 108.393H86.4662C86.4662 120.097 78.076 129.624 67.7675 129.624Z"/>
    </mask>
    <path d="M67.7675 129.624H51.2011C40.8888 129.624 32.4949 120.097 32.4949 108.393H35.4793C35.4793 118.439 42.5293 126.612 51.2011 126.612H67.7675C76.4393 126.612 83.4893 118.439 83.4893 108.393H86.4662C86.4662 120.097 78.076 129.624 67.7675 129.624Z" fill="#FFA045"/>
    <path d="M32.4949 108.393H29.4449V105.343H32.4949V108.393ZM35.4793 108.393V105.343H38.5293V108.393H35.4793ZM83.4893 108.393H80.4393V105.343H83.4893V108.393ZM86.4662 108.393V105.343H89.5162V108.393H86.4662ZM67.7675 129.624V132.674H51.2011V129.624V126.574H67.7675V129.624ZM51.2011 129.624V132.674C38.853 132.674 29.4449 121.408 29.4449 108.393H32.4949H35.5449C35.5449 118.787 42.9247 126.574 51.2011 126.574V129.624ZM32.4949 108.393V105.343H35.4793V108.393V111.443H32.4949V108.393ZM35.4793 108.393H38.5293C38.5293 117.193 44.6205 123.562 51.2011 123.562V126.612V129.662C40.4382 129.662 32.4293 119.686 32.4293 108.393H35.4793ZM51.2011 126.612V123.562H67.7675V126.612V129.662H51.2011V126.612ZM67.7675 126.612V123.562C74.3481 123.562 80.4393 117.193 80.4393 108.393H83.4893H86.5393C86.5393 119.686 78.5304 129.662 67.7675 129.662V126.612ZM83.4893 108.393V105.343H86.4662V108.393V111.443H83.4893V108.393ZM86.4662 108.393H89.5162C89.5162 121.406 80.1129 132.674 67.7675 132.674V129.624V126.574C76.0391 126.574 83.4162 118.789 83.4162 108.393H86.4662Z" fill="white" mask="url(#path-4-inside-2_8_246)"/>
    <mask id="path-6-inside-3_8_246" fill="white">
    <path d="M89.3978 101.586L88.5344 98.7025L102.349 94.4685L105.307 78.2608L92.5024 68.7153L94.2705 66.2909L108.573 76.9557L104.951 96.817L89.3978 101.586Z"/>
    </mask>
    <path d="M89.3978 101.586L88.5344 98.7025L102.349 94.4685L105.307 78.2608L92.5024 68.7153L94.2705 66.2909L108.573 76.9557L104.951 96.817L89.3978 101.586Z" fill="#FFA045"/>
    <path d="M89.3978 101.586L90.292 104.502L87.3567 105.402L86.476 102.461L89.3978 101.586ZM88.5344 98.7025L85.6126 99.5775L84.7433 96.6744L87.6407 95.7864L88.5344 98.7025ZM102.349 94.4685L105.35 95.0161L105.017 96.841L103.243 97.3846L102.349 94.4685ZM105.307 78.2608L107.13 75.8155L108.648 76.9466L108.308 78.8084L105.307 78.2608ZM92.5024 68.7153L90.6795 71.1606L88.2596 69.3566L90.0382 66.918L92.5024 68.7153ZM94.2705 66.2909L91.8063 64.4937L93.6226 62.0033L96.0937 63.8458L94.2705 66.2909ZM108.573 76.9557L110.396 74.5106L111.913 75.6416L111.574 77.503L108.573 76.9557ZM104.951 96.817L107.951 97.3642L107.618 99.1891L105.845 99.733L104.951 96.817ZM89.3978 101.586L86.476 102.461L85.6126 99.5775L88.5344 98.7025L91.4562 97.8276L92.3197 100.711L89.3978 101.586ZM88.5344 98.7025L87.6407 95.7864L101.455 91.5524L102.349 94.4685L103.243 97.3846L89.4282 101.619L88.5344 98.7025ZM102.349 94.4685L99.3487 93.9209L102.307 77.7132L105.307 78.2608L108.308 78.8084L105.35 95.0161L102.349 94.4685ZM105.307 78.2608L103.484 80.7061L90.6795 71.1606L92.5024 68.7153L94.3253 66.2699L107.13 75.8155L105.307 78.2608ZM92.5024 68.7153L90.0382 66.918L91.8063 64.4937L94.2705 66.2909L96.7348 68.0882L94.9666 70.5125L92.5024 68.7153ZM94.2705 66.2909L96.0937 63.8458L110.396 74.5106L108.573 76.9557L106.75 79.4008L92.4474 68.736L94.2705 66.2909ZM108.573 76.9557L111.574 77.503L107.951 97.3642L104.951 96.817L101.95 96.2697L105.573 76.4084L108.573 76.9557ZM104.951 96.817L105.845 99.733L90.292 104.502L89.3978 101.586L88.5037 98.6699L104.057 93.901L104.951 96.817Z" fill="white" mask="url(#path-6-inside-3_8_246)"/>
    <mask id="path-8-inside-4_8_246" fill="white">
    <path d="M29.274 101.587L13.7211 96.8179L10.0985 76.9567L24.405 66.2919L26.1694 68.7162L13.3682 78.2618L16.3226 94.4695L30.1411 98.7035L29.274 101.587Z"/>
    </mask>
    <path d="M29.274 101.587L13.7211 96.8179L10.0985 76.9567L24.405 66.2919L26.1694 68.7162L13.3682 78.2618L16.3226 94.4695L30.1411 98.7035L29.274 101.587Z" fill="#FFA045"/>
    <path d="M29.274 101.587L32.1947 102.465L31.3116 105.402L28.3798 104.503L29.274 101.587ZM13.7211 96.8179L12.827 99.7339L11.0535 99.1901L10.7206 97.3652L13.7211 96.8179ZM10.0985 76.9567L7.09801 77.5039L6.75846 75.6423L8.27564 74.5113L10.0985 76.9567ZM24.405 66.2919L22.5822 63.8466L25.0556 62.0027L26.8711 64.4972L24.405 66.2919ZM26.1694 68.7162L28.6354 66.9215L30.4095 69.3591L27.9926 71.1613L26.1694 68.7162ZM13.3682 78.2618L10.3677 78.8087L10.0284 76.9476L11.545 75.8167L13.3682 78.2618ZM16.3226 94.4695L15.4291 97.3857L13.6549 96.842L13.3221 95.0164L16.3226 94.4695ZM30.1411 98.7035L31.0347 95.7873L33.9358 96.6763L33.0619 99.5819L30.1411 98.7035ZM29.274 101.587L28.3798 104.503L12.827 99.7339L13.7211 96.8179L14.6153 93.9019L30.1681 98.6709L29.274 101.587ZM13.7211 96.8179L10.7206 97.3652L7.09801 77.5039L10.0985 76.9567L13.099 76.4094L16.7216 96.2707L13.7211 96.8179ZM10.0985 76.9567L8.27564 74.5113L22.5822 63.8466L24.405 66.2919L26.2279 68.7372L11.9214 79.402L10.0985 76.9567ZM24.405 66.2919L26.8711 64.4972L28.6354 66.9215L26.1694 68.7162L23.7034 70.511L21.939 68.0867L24.405 66.2919ZM26.1694 68.7162L27.9926 71.1613L15.1915 80.7068L13.3682 78.2618L11.545 75.8167L24.3462 66.2712L26.1694 68.7162ZM13.3682 78.2618L16.3688 77.7148L19.3232 93.9225L16.3226 94.4695L13.3221 95.0164L10.3677 78.8087L13.3682 78.2618ZM16.3226 94.4695L17.2162 91.5533L31.0347 95.7873L30.1411 98.7035L29.2476 101.62L15.4291 97.3857L16.3226 94.4695ZM30.1411 98.7035L33.0619 99.5819L32.1947 102.465L29.274 101.587L26.3532 100.708L27.2204 97.8251L30.1411 98.7035Z" fill="white" mask="url(#path-8-inside-4_8_246)"/>
    <mask id="path-10-inside-5_8_246" fill="white">
    <path d="M72.3844 73.7001C68.9419 73.7001 66.1414 76.5304 66.1414 80.0095C66.1414 83.4923 68.9419 86.3226 72.3844 86.3226C75.8305 86.3226 78.631 83.4923 78.631 80.0095C78.631 76.5304 75.8305 73.7001 72.3844 73.7001ZM72.3844 89.335C67.3014 89.335 63.1608 85.154 63.1608 80.0095C63.1608 74.8725 67.3014 70.6878 72.3844 70.6878C77.471 70.6878 81.6079 74.8725 81.6079 80.0095C81.6079 85.154 77.471 89.335 72.3844 89.335Z"/>
    </mask>
    <path d="M72.3844 73.7001C68.9419 73.7001 66.1414 76.5304 66.1414 80.0095C66.1414 83.4923 68.9419 86.3226 72.3844 86.3226C75.8305 86.3226 78.631 83.4923 78.631 80.0095C78.631 76.5304 75.8305 73.7001 72.3844 73.7001ZM72.3844 89.335C67.3014 89.335 63.1608 85.154 63.1608 80.0095C63.1608 74.8725 67.3014 70.6878 72.3844 70.6878C77.471 70.6878 81.6079 74.8725 81.6079 80.0095C81.6079 85.154 77.471 89.335 72.3844 89.335Z" fill="#FFA045"/>
    <path d="M72.3844 73.7001V76.7501C70.6567 76.7501 69.1914 78.1844 69.1914 80.0095H66.1414H63.0914C63.0914 74.8765 67.2271 70.6501 72.3844 70.6501V73.7001ZM66.1414 80.0095H69.1914C69.1914 81.8395 70.6579 83.2726 72.3844 83.2726V86.3226V89.3726C67.2259 89.3726 63.0914 85.1451 63.0914 80.0095H66.1414ZM72.3844 86.3226V83.2726C74.1157 83.2726 75.581 81.8383 75.581 80.0095H78.631H81.681C81.681 85.1463 77.5453 89.3726 72.3844 89.3726V86.3226ZM78.631 80.0095H75.581C75.581 78.1856 74.1169 76.7501 72.3844 76.7501V73.7001V70.6501C77.5442 70.6501 81.681 74.8753 81.681 80.0095H78.631ZM72.3844 89.335V92.385C65.5866 92.385 60.1108 86.808 60.1108 80.0095H63.1608H66.2108C66.2108 83.5001 69.0162 86.285 72.3844 86.285V89.335ZM63.1608 80.0095H60.1108C60.1108 73.2185 65.5866 67.6378 72.3844 67.6378V70.6878V73.7378C69.0162 73.7378 66.2108 76.5264 66.2108 80.0095H63.1608ZM72.3844 70.6878V67.6378C79.1867 67.6378 84.6579 73.2193 84.6579 80.0095H81.6079H78.5579C78.5579 76.5256 75.7554 73.7378 72.3844 73.7378V70.6878ZM81.6079 80.0095H84.6579C84.6579 86.8072 79.1866 92.385 72.3844 92.385V89.335V86.285C75.7554 86.285 78.5579 83.5009 78.5579 80.0095H81.6079Z" fill="white" mask="url(#path-10-inside-5_8_246)"/>
    <mask id="path-12-inside-6_8_246" fill="white">
    <path d="M45.0368 73.7001C41.5906 73.7001 38.7902 76.5304 38.7902 80.0095C38.7902 83.4923 41.5906 86.3226 45.0368 86.3226C48.4792 86.3226 51.2835 83.4923 51.2835 80.0095C51.2835 76.5304 48.4792 73.7001 45.0368 73.7001ZM45.0368 89.335C39.9501 89.335 35.8132 85.154 35.8132 80.0095C35.8132 74.8725 39.9501 70.6878 45.0368 70.6878C50.1235 70.6878 54.2642 74.8725 54.2642 80.0095C54.2642 85.154 50.1235 89.335 45.0368 89.335Z"/>
    </mask>
    <path d="M45.0368 73.7001C41.5906 73.7001 38.7902 76.5304 38.7902 80.0095C38.7902 83.4923 41.5906 86.3226 45.0368 86.3226C48.4792 86.3226 51.2835 83.4923 51.2835 80.0095C51.2835 76.5304 48.4792 73.7001 45.0368 73.7001ZM45.0368 89.335C39.9501 89.335 35.8132 85.154 35.8132 80.0095C35.8132 74.8725 39.9501 70.6878 45.0368 70.6878C50.1235 70.6878 54.2642 74.8725 54.2642 80.0095C54.2642 85.154 50.1235 89.335 45.0368 89.335Z" fill="#FFA045"/>
    <path d="M45.0368 73.7001V76.7501C43.3043 76.7501 41.8402 78.1856 41.8402 80.0095H38.7902H35.7402C35.7402 74.8753 39.877 70.6501 45.0368 70.6501V73.7001ZM38.7902 80.0095H41.8402C41.8402 81.8383 43.3055 83.2726 45.0368 83.2726V86.3226V89.3726C39.8758 89.3726 35.7402 85.1463 35.7402 80.0095H38.7902ZM45.0368 86.3226V83.2726C46.7656 83.2726 48.2335 81.8371 48.2335 80.0095H51.2835H54.3335C54.3335 85.1475 50.1929 89.3726 45.0368 89.3726V86.3226ZM51.2835 80.0095H48.2335C48.2335 78.1868 46.7668 76.7501 45.0368 76.7501V73.7001V70.6501C50.1917 70.6501 54.3335 74.8741 54.3335 80.0095H51.2835ZM45.0368 89.335V92.385C38.2345 92.385 32.7632 86.8072 32.7632 80.0095H35.8132H38.8632C38.8632 83.5009 41.6658 86.285 45.0368 86.285V89.335ZM35.8132 80.0095H32.7632C32.7632 73.2193 38.2345 67.6378 45.0368 67.6378V70.6878V73.7378C41.6658 73.7378 38.8632 76.5256 38.8632 80.0095H35.8132ZM45.0368 70.6878V67.6378C51.8375 67.6378 57.3142 73.2177 57.3142 80.0095H54.2642H51.2142C51.2142 76.5272 48.4095 73.7378 45.0368 73.7378V70.6878ZM54.2642 80.0095H57.3142C57.3142 86.8088 51.8375 92.385 45.0368 92.385V89.335V86.285C48.4095 86.285 51.2142 83.4993 51.2142 80.0095H54.2642Z" fill="white" mask="url(#path-12-inside-6_8_246)"/>
    <mask id="path-14-inside-7_8_246" fill="white">
    <path d="M55.8024 100.521L53.261 98.9508L59.5039 88.6427L65.5666 98.966L63.0064 100.503L59.4664 94.4739L55.8024 100.521Z"/>
    </mask>
    <path d="M55.8024 100.521L53.261 98.9508L59.5039 88.6427L65.5666 98.966L63.0064 100.503L59.4664 94.4739L55.8024 100.521Z" fill="#FFA045"/>
    <path d="M55.8024 100.521L58.411 102.102L56.8166 104.734L54.199 103.116L55.8024 100.521ZM53.261 98.9508L51.6575 101.545L49.0863 99.9562L50.6521 97.3708L53.261 98.9508ZM59.5039 88.6427L56.895 87.0627L59.5442 82.6885L62.1339 87.0981L59.5039 88.6427ZM65.5666 98.966L68.1966 97.4214L69.7265 100.026L67.1361 101.581L65.5666 98.966ZM63.0064 100.503L64.5759 103.118L61.9356 104.702L60.3763 102.047L63.0064 100.503ZM59.4664 94.4739L56.8578 92.8935L59.5073 88.5203L62.0964 92.9295L59.4664 94.4739ZM55.8024 100.521L54.199 103.116L51.6575 101.545L53.261 98.9508L54.8645 96.3563L57.4059 97.927L55.8024 100.521ZM53.261 98.9508L50.6521 97.3708L56.895 87.0627L59.5039 88.6427L62.1127 90.2227L55.8698 100.531L53.261 98.9508ZM59.5039 88.6427L62.1339 87.0981L68.1966 97.4214L65.5666 98.966L62.9366 100.511L56.8739 90.1872L59.5039 88.6427ZM65.5666 98.966L67.1361 101.581L64.5759 103.118L63.0064 100.503L61.4369 97.8873L63.9971 96.3508L65.5666 98.966ZM63.0064 100.503L60.3763 102.047L56.8363 96.0184L59.4664 94.4739L62.0964 92.9295L65.6365 98.9581L63.0064 100.503ZM59.4664 94.4739L62.075 96.0544L58.411 102.102L55.8024 100.521L53.1939 98.9411L56.8578 92.8935L59.4664 94.4739Z" fill="white" mask="url(#path-14-inside-7_8_246)"/>
    <mask id="path-16-inside-8_8_246" fill="white">
    <path d="M59.8242 77.5938H56.8436C56.8436 70.6357 51.618 64.9751 45.1986 64.9751C39.7103 64.9751 34.9164 69.194 33.8015 75.0025L33.5612 76.2203H26.2034V73.2118H31.1587C32.9531 66.6217 38.6817 61.9627 45.1986 61.9627C53.266 61.9627 59.8242 68.9739 59.8242 77.5938Z"/>
    </mask>
    <path d="M59.8242 77.5938H56.8436C56.8436 70.6357 51.618 64.9751 45.1986 64.9751C39.7103 64.9751 34.9164 69.194 33.8015 75.0025L33.5612 76.2203H26.2034V73.2118H31.1587C32.9531 66.6217 38.6817 61.9627 45.1986 61.9627C53.266 61.9627 59.8242 68.9739 59.8242 77.5938Z" fill="#FFA045"/>
    <path d="M59.8242 77.5938H62.8742V80.6437H59.8242V77.5938ZM56.8436 77.5938V80.6437H53.7936V77.5938H56.8436ZM33.8015 75.0025L36.7968 75.5774L36.7953 75.5851L36.7938 75.5928L33.8015 75.0025ZM33.5612 76.2203L36.5535 76.8107L36.0683 79.2703H33.5612V76.2203ZM26.2034 76.2203V79.2703H23.1534V76.2203H26.2034ZM26.2034 73.2118H23.1534V70.1618H26.2034V73.2118ZM31.1587 73.2118L34.1015 74.0131L33.4892 76.2618H31.1587V73.2118ZM59.8242 77.5938V80.6437H56.8436V77.5938V74.5438H59.8242V77.5938ZM56.8436 77.5938H53.7936C53.7936 72.0852 49.7078 68.0251 45.1986 68.0251V64.9751V61.9251C53.5281 61.9251 59.8936 69.1861 59.8936 77.5938H56.8436ZM45.1986 64.9751V68.0251C41.3336 68.0251 37.6674 71.0418 36.7968 75.5774L33.8015 75.0025L30.8062 74.4275C32.1654 67.3461 38.087 61.9251 45.1986 61.9251V64.9751ZM33.8015 75.0025L36.7938 75.5928L36.5535 76.8107L33.5612 76.2203L30.5689 75.63L30.8091 74.4122L33.8015 75.0025ZM33.5612 76.2203V79.2703H26.2034V76.2203V73.1703H33.5612V76.2203ZM26.2034 76.2203H23.1534V73.2118H26.2034H29.2534V76.2203H26.2034ZM26.2034 73.2118V70.1618H31.1587V73.2118V76.2618H26.2034V73.2118ZM31.1587 73.2118L28.2158 72.4104C30.3373 64.619 37.1793 58.9127 45.1986 58.9127V61.9627V65.0127C40.184 65.0127 35.5688 68.6244 34.1015 74.0131L31.1587 73.2118ZM45.1986 61.9627V58.9127C55.1385 58.9127 62.8742 67.4839 62.8742 77.5938H59.8242H56.7742C56.7742 70.4639 51.3934 65.0127 45.1986 65.0127V61.9627Z" fill="white" mask="url(#path-16-inside-8_8_246)"/>
    <mask id="path-18-inside-9_8_246" fill="white">
    <path d="M60.4539 77.5938H57.4769C57.4769 68.9739 64.0352 61.9627 72.1025 61.9627C78.6195 61.9627 84.3481 66.6217 86.1425 73.2118H92.941V76.2203H83.7362L83.5072 75.0025C82.3847 69.194 77.5909 64.9751 72.1025 64.9751C65.6832 64.9751 60.4539 70.6357 60.4539 77.5938Z"/>
    </mask>
    <path d="M60.4539 77.5938H57.4769C57.4769 68.9739 64.0352 61.9627 72.1025 61.9627C78.6195 61.9627 84.3481 66.6217 86.1425 73.2118H92.941V76.2203H83.7362L83.5072 75.0025C82.3847 69.194 77.5909 64.9751 72.1025 64.9751C65.6832 64.9751 60.4539 70.6357 60.4539 77.5938Z" fill="#FFA045"/>
    <path d="M60.4539 77.5938H63.5039V80.6437H60.4539V77.5938ZM57.4769 77.5938V80.6437H54.4269V77.5938H57.4769ZM86.1425 73.2118V76.2618H83.8119L83.1996 74.0131L86.1425 73.2118ZM92.941 73.2118V70.1618H95.991V73.2118H92.941ZM92.941 76.2203H95.991V79.2703H92.941V76.2203ZM83.7362 76.2203V79.2703H81.2062L80.7387 76.784L83.7362 76.2203ZM83.5072 75.0025L86.5018 74.4238L86.5032 74.4313L86.5047 74.4389L83.5072 75.0025ZM60.4539 77.5938V80.6437H57.4769V77.5938V74.5438H60.4539V77.5938ZM57.4769 77.5938H54.4269C54.4269 67.4839 62.1626 58.9127 72.1025 58.9127V61.9627V65.0127C65.9077 65.0127 60.5269 70.4639 60.5269 77.5938H57.4769ZM72.1025 61.9627V58.9127C80.1218 58.9127 86.9638 64.619 89.0854 72.4104L86.1425 73.2118L83.1996 74.0131C81.7324 68.6244 77.1171 65.0127 72.1025 65.0127V61.9627ZM86.1425 73.2118V70.1618H92.941V73.2118V76.2618H86.1425V73.2118ZM92.941 73.2118H95.991V76.2203H92.941H89.891V73.2118H92.941ZM92.941 76.2203V79.2703H83.7362V76.2203V73.1703H92.941V76.2203ZM83.7362 76.2203L80.7387 76.784L80.5097 75.5661L83.5072 75.0025L86.5047 74.4389L86.7337 75.6567L83.7362 76.2203ZM83.5072 75.0025L80.5126 75.5812C79.6354 71.0418 75.9671 68.0251 72.1025 68.0251V64.9751V61.9251C79.2146 61.9251 85.1341 67.3461 86.5018 74.4238L83.5072 75.0025ZM72.1025 64.9751V68.0251C67.5921 68.0251 63.5039 72.0865 63.5039 77.5938H60.4539H57.4039C57.4039 69.1848 63.7742 61.9251 72.1025 61.9251V64.9751Z" fill="white" mask="url(#path-18-inside-9_8_246)"/>
    <mask id="path-20-inside-10_8_246" fill="white">
    <path d="M91.6753 56.6865H27.2942V53.6741H91.6753V56.6865Z"/>
    </mask>
    <path d="M91.6753 56.6865H27.2942V53.6741H91.6753V56.6865Z" fill="#FFA045"/>
    <path d="M91.6753 56.6865H94.7253V59.7365H91.6753V56.6865ZM27.2942 56.6865V59.7365H24.2442V56.6865H27.2942ZM27.2942 53.6741H24.2442V50.6241H27.2942V53.6741ZM91.6753 53.6741V50.6241H94.7253V53.6741H91.6753ZM91.6753 56.6865V59.7365H27.2942V56.6865V53.6365H91.6753V56.6865ZM27.2942 56.6865H24.2442V53.6741H27.2942H30.3442V56.6865H27.2942ZM27.2942 53.6741V50.6241H91.6753V53.6741V56.7241H27.2942V53.6741ZM91.6753 53.6741H94.7253V56.6865H91.6753H88.6253V53.6741H91.6753Z" fill="white" mask="url(#path-20-inside-10_8_246)"/>
    <mask id="path-22-inside-11_8_246" fill="white">
    <path d="M59.8554 12.9256C57.3515 12.9256 55.3093 14.9858 55.3093 17.5201C55.3093 20.0545 57.3515 22.1146 59.8554 22.1146C62.3593 22.1146 64.4015 20.0545 64.4015 17.5201C64.4015 14.9858 62.3593 12.9256 59.8554 12.9256ZM59.8554 25.127C55.7072 25.127 52.3286 21.7162 52.3286 17.5201C52.3286 13.3278 55.7072 9.91326 59.8554 9.91326C64.0036 9.91326 67.3822 13.3278 67.3822 17.5201C67.3822 21.7162 64.0036 25.127 59.8554 25.127Z"/>
    </mask>
    <path d="M59.8554 12.9256C57.3515 12.9256 55.3093 14.9858 55.3093 17.5201C55.3093 20.0545 57.3515 22.1146 59.8554 22.1146C62.3593 22.1146 64.4015 20.0545 64.4015 17.5201C64.4015 14.9858 62.3593 12.9256 59.8554 12.9256ZM59.8554 25.127C55.7072 25.127 52.3286 21.7162 52.3286 17.5201C52.3286 13.3278 55.7072 9.91326 59.8554 9.91326C64.0036 9.91326 67.3822 13.3278 67.3822 17.5201C67.3822 21.7162 64.0036 25.127 59.8554 25.127Z" fill="#FFA045"/>
    <path d="M59.8554 12.9256V15.9756C59.0647 15.9756 58.3593 16.6414 58.3593 17.5201H55.3093H52.2593C52.2593 13.3301 55.6383 9.87565 59.8554 9.87565V12.9256ZM55.3093 17.5201H58.3593C58.3593 18.3988 59.0647 19.0646 59.8554 19.0646V22.1146V25.1646C55.6383 25.1646 52.2593 21.7101 52.2593 17.5201H55.3093ZM59.8554 22.1146V19.0646C60.6461 19.0646 61.3515 18.3988 61.3515 17.5201H64.4015H67.4515C67.4515 21.7101 64.0725 25.1646 59.8554 25.1646V22.1146ZM64.4015 17.5201H61.3515C61.3515 16.6414 60.6461 15.9756 59.8554 15.9756V12.9256V9.87565C64.0725 9.87565 67.4515 13.3301 67.4515 17.5201H64.4015ZM59.8554 25.127V28.177C53.9934 28.177 49.2786 23.3712 49.2786 17.5201H52.3286H55.3786C55.3786 20.0612 57.421 22.077 59.8554 22.077V25.127ZM52.3286 17.5201H49.2786C49.2786 11.6738 53.9924 6.86326 59.8554 6.86326V9.91326V12.9633C57.422 12.9633 55.3786 14.9818 55.3786 17.5201H52.3286ZM59.8554 9.91326V6.86326C65.7184 6.86326 70.4322 11.6738 70.4322 17.5201H67.3822H64.3322C64.3322 14.9818 62.2888 12.9633 59.8554 12.9633V9.91326ZM67.3822 17.5201H70.4322C70.4322 23.3712 65.7174 28.177 59.8554 28.177V25.127V22.077C62.2897 22.077 64.3322 20.0612 64.3322 17.5201H67.3822Z" fill="white" mask="url(#path-22-inside-11_8_246)"/>
    <mask id="path-24-inside-12_8_246" fill="white">
    <path d="M61.3519 32.6562H58.3713V23.6191H61.3519V32.6562Z"/>
    </mask>
    <path d="M61.3519 32.6562H58.3713V23.6191H61.3519V32.6562Z" fill="#FFA045"/>
    <path d="M61.3519 32.6562H64.4019V35.7062H61.3519V32.6562ZM58.3713 32.6562V35.7062H55.3213V32.6562H58.3713ZM58.3713 23.6191H55.3213V20.5691H58.3713V23.6191ZM61.3519 23.6191V20.5691H64.4019V23.6191H61.3519ZM61.3519 32.6562V35.7062H58.3713V32.6562V29.6063H61.3519V32.6562ZM58.3713 32.6562H55.3213V23.6191H58.3713H61.4213V32.6562H58.3713ZM58.3713 23.6191V20.5691H61.3519V23.6191V26.6691H58.3713V23.6191ZM61.3519 23.6191H64.4019V32.6562H61.3519H58.3019V23.6191H61.3519Z" fill="white" mask="url(#path-24-inside-12_8_246)"/>
</svg>
