<svg width="59" height="57" viewBox="0 0 59 57" fill="none" xmlns="http://www.w3.org/2000/svg">
    <path d="M24 14.1566C30.0964 14.1566 30.9277 14.1566 33.4217 14.1566C35.6386 14.1566 36.747 14.7108 37.5783 14.988C38.6867 15.5422 39.5181 15.8193 40.3494 16.6506C41.1807 17.4819 41.7349 18.3133 42.0121 19.4217C42.2892 20.253 42.5663 21.3614 42.8434 23.5783C42.8434 26.0723 42.8434 26.6265 42.8434 33C42.8434 39.3735 42.8434 39.9277 42.8434 42.4217C42.8434 44.6386 42.2892 45.747 42.0121 46.5783C41.4578 47.6867 41.1807 48.5181 40.3494 49.3494C39.5181 50.1807 38.6867 50.7349 37.5783 51.0121C36.747 51.2892 35.6386 51.5663 33.4217 51.8434C30.9277 51.8434 30.3735 51.8434 24 51.8434C17.6265 51.8434 17.0723 51.8434 14.5783 51.8434C12.3614 51.8434 11.253 51.2892 10.4217 51.0121C9.31326 50.4578 8.48193 50.1807 7.6506 49.3494C6.81928 48.5181 6.26506 47.6867 5.98795 46.5783C5.71084 45.747 5.43374 44.6386 5.15663 42.4217C5.15663 39.9277 5.15663 39.3735 5.15663 33C5.15663 26.6265 5.15663 26.0723 5.15663 23.5783C5.15663 21.3614 5.71084 20.253 5.98795 19.4217C6.54217 18.3133 6.81928 17.4819 7.6506 16.6506C8.48193 15.8193 9.31326 15.2651 10.4217 14.988C11.253 14.7108 12.3614 14.4337 14.5783 14.1566C17.0723 14.1566 17.9036 14.1566 24 14.1566ZM24 10C17.6265 10 17.0723 10 14.5783 10C12.0843 10 10.4217 10.5542 9.03615 11.1084C7.6506 11.6627 6.26506 12.494 4.87952 13.8795C3.49398 15.2651 2.93976 16.3735 2.10844 18.0361C1.55422 19.4217 1.27711 21.0843 1 23.5783C1 26.0723 1 26.9036 1 33C1 39.3735 1 39.9277 1 42.4217C1 44.9157 1.55422 46.5783 2.10844 47.9639C2.66265 49.3494 3.49398 50.7349 4.87952 52.1205C6.26506 53.506 7.3735 54.0602 9.03615 54.8916C10.4217 55.4458 12.0843 55.7229 14.5783 56C17.0723 56 17.9036 56 24 56C30.0964 56 30.9277 56 33.4217 56C35.9157 56 37.5783 55.4458 38.9639 54.8916C40.3494 54.3374 41.7349 53.506 43.1205 52.1205C44.506 50.7349 45.0602 49.6265 45.8916 47.9639C46.4458 46.5783 46.7229 44.9157 47 42.4217C47 39.9277 47 39.0964 47 33C47 26.9036 47 26.0723 47 23.5783C47 21.0843 46.4458 19.4217 45.8916 18.0361C45.3374 16.6506 44.506 15.2651 43.1205 13.8795C41.7349 12.494 40.6265 11.9398 38.9639 11.1084C37.5783 10.5542 35.9157 10.2771 33.4217 10C30.9277 10 30.3735 10 24 10Z" fill="#3E2727"/>
    <path d="M24 21.0843C17.3494 21.0843 12.0843 26.3494 12.0843 33C12.0843 39.6506 17.3494 44.9157 24 44.9157C30.6506 44.9157 35.9157 39.6506 35.9157 33C35.9157 26.3494 30.6506 21.0843 24 21.0843ZM24 40.759C19.8434 40.759 16.241 37.4337 16.241 33C16.241 28.8434 19.5663 25.241 24 25.241C28.1566 25.241 31.759 28.5663 31.759 33C31.759 37.1566 28.1566 40.759 24 40.759Z" fill="#3E2727"/>
    <path d="M36.1928 23.5783C37.7232 23.5783 38.9639 22.3377 38.9639 20.8072C38.9639 19.2768 37.7232 18.0361 36.1928 18.0361C34.6623 18.0361 33.4217 19.2768 33.4217 20.8072C33.4217 22.3377 34.6623 23.5783 36.1928 23.5783Z" fill="#3E2727"/>
    <path d="M50.4584 10.8555L48.3609 9.33447L50.8427 6.21231L47 5.09153L47.8006 2.62582L51.5472 4.01879L51.4031 0H53.9969L53.8528 4.01879L57.5993 2.62582L58.3999 5.09153L54.5572 6.21231L57.0229 9.33447L54.9255 10.8555L52.7 7.55724L50.4584 10.8555Z" fill="#ED3D5A"/>
</svg>
