<svg width="65" height="77" viewBox="0 0 65 77" fill="none" xmlns="http://www.w3.org/2000/svg">
    <path d="M37.647 35.1633C37.647 35.1633 29.5933 50.4313 26.5423 53.5377C23.4912 56.6441 20.6953 58.1592 17.751 56.1185C14.8068 54.0779 13.1351 47.233 21.3458 35.9958C21.3458 35.9958 38.2136 10.1379 41.5051 6.17366C44.7966 2.2094 50.5357 2.00943 53.7203 3.19223C56.9049 4.37504 63.1991 11.8716 61.6787 17.784C60.1583 23.6964 32.1038 68.8119 26.3216 71.8328C20.5395 74.8537 17.8891 73.7863 14.0068 71.9601C6.08021 67.8499 3.08012 62.6115 2.5747 56.342C2.06928 50.0726 20.8974 23.1525 20.8974 23.1525" stroke="#FFA045" stroke-width="5.1237" stroke-linecap="round"/>
</svg>
