<svg width="116" height="142" viewBox="0 0 116 142" fill="none" xmlns="http://www.w3.org/2000/svg">
    <path d="M86.6034 9.71271L86.4665 9.62203L74.6531 2.11623C72.8304 0.958147 70.4175 1.45592 69.2019 3.24081L62.8155 12.6182C62.3567 13.2919 61.5354 13.6161 60.7344 13.4646C57.6695 12.885 54.5407 12.5898 51.383 12.5926C34.5357 12.6074 18.8767 21.0052 9.5628 35.0466C9.56226 35.0474 9.5618 35.0482 9.56144 35.0492C9.56108 35.0501 9.56062 35.0509 9.56008 35.0518C-1.76968 52.1406 -1.24873 73.6758 9.15317 89.9178C9.59416 90.6063 9.59924 91.4928 9.14202 92.1707L2.34618 102.247C1.10443 104.088 1.60019 106.588 3.4505 107.816L13.2826 114.342C14.0703 114.865 14.3843 115.867 14.0355 116.746L12.8801 119.656C12.8156 119.819 12.7727 119.989 12.7524 120.163L10.7282 137.518C10.4509 139.896 12.3109 141.984 14.7053 141.982L90.6333 141.906C93.0543 141.903 94.9181 139.768 94.5931 137.369L92.2613 120.157C92.2383 119.987 92.1936 119.821 92.1282 119.663L90.246 115.101C89.8972 114.256 90.1681 113.285 90.8873 112.72C96.1034 108.625 100.707 103.685 104.48 97.9969C113.866 83.8452 117.195 66.7952 113.825 50.1526C110.455 33.5083 100.756 19.0979 86.6034 9.71271Z" fill="#CBF6EC"/>
    <path d="M51.0196 29.902C40.1283 29.9116 30.0385 35.3266 24.0285 44.3877C14.1617 59.2704 18.24 79.4066 33.1208 89.274C38.454 92.8114 44.6407 94.6783 51.0124 94.6727C61.9002 94.6631 71.9906 89.2469 78.0006 80.1834C82.7814 72.9762 84.4678 64.3375 82.7527 55.8612C81.0357 47.3825 76.122 40.0803 68.9136 35.2995C63.5799 31.7634 57.392 29.8964 51.0196 29.902ZM51.0151 97.7391C44.0375 97.7452 37.2643 95.7022 31.4237 91.8299C15.1352 81.0267 10.6717 58.9851 21.4732 42.6942C28.0527 32.7746 39.0963 26.8462 51.0169 26.8357C57.9952 26.8295 64.7701 28.8732 70.6095 32.7442C78.4986 37.9781 83.879 45.9714 85.7578 55.2521C87.6354 64.5328 85.7898 73.9898 80.5559 81.8776C73.9776 91.799 62.9339 97.7286 51.0151 97.7391Z" fill="#76D2BC"/>
    <path d="M25.6784 101.921C33.1173 106.51 41.6871 108.923 50.5609 108.915C66.5873 108.901 81.3099 101.121 89.944 88.103C96.8375 77.7057 99.2728 65.2454 96.7968 53.0172C94.4205 41.2836 87.7978 31.1134 78.0825 24.2187L75.1555 28.5155C93.3056 41.9363 97.8731 67.2689 85.2082 85.7199C77.4705 96.9914 64.6812 103.728 50.9922 103.74C43.1001 103.747 35.4575 101.525 28.7936 97.3013L25.6784 101.921ZM50.5636 111.982C40.5612 111.991 30.9202 109.108 22.6807 103.644L21.3933 102.789L27.964 93.047L29.239 93.9218C35.6836 98.3459 43.205 100.68 50.9895 100.673C63.667 100.662 75.5132 94.4239 82.6796 83.9853C94.6734 66.5124 89.9614 42.365 72.1773 30.1568L70.9166 29.2922L77.2493 19.9935L78.5296 20.807C89.6087 28.1543 97.1629 39.3767 99.8014 52.4087C102.44 65.4389 99.8465 78.7174 92.4987 89.7966C83.2952 103.673 67.6192 111.967 50.5636 111.982Z" fill="#76D2BC"/>
    <path d="M30.0794 90.625C25.9225 81.1311 28.8134 64.8876 36.8008 52.8434C44.7894 40.7957 58.5846 31.8443 68.9944 31.9499L68.9537 35.0169C59.7349 34.8615 46.6957 43.4697 39.3555 54.5364C32.0166 65.603 29.176 80.9148 32.889 89.3959L30.0794 90.625Z" fill="#76D2BC"/>
    <path d="M33.2913 92.6245C33.2057 92.6246 33.1224 92.6247 33.0386 92.6235L33.0787 89.5566C42.3136 89.6852 55.3338 81.1061 62.6757 70.0394C70.0152 58.9727 72.8541 43.6592 69.1428 35.1769L71.9524 33.9478C76.1075 43.4441 73.2184 59.6882 65.2304 71.7324C57.3054 83.6825 43.6243 92.6154 33.2913 92.6245Z" fill="#76D2BC"/>
    <path d="M83.5724 57.7852C75.11 57.7927 66.1399 55.1772 59.4157 50.7164C52.1758 45.9142 45.9856 38.0127 42.8565 29.5792L45.7328 28.5129C48.6438 36.3603 54.3929 43.7045 61.1093 48.1605C67.5568 52.4366 76.2348 54.8977 84.3498 54.7098L84.4167 57.7761C84.1366 57.7829 83.8536 57.785 83.5724 57.7852Z" fill="#76D2BC"/>
    <path d="M58.3776 95.5193C55.59 87.2633 49.7091 79.5386 42.6441 74.8528C35.5897 70.1754 26.2036 67.7517 17.5218 68.3956L17.2991 65.3365C26.6296 64.6576 36.7365 67.2566 44.3388 72.2975C51.9524 77.3461 58.2851 85.6608 61.2838 94.5386L58.3776 95.5193Z" fill="#76D2BC"/>
    <path d="M78.4298 82.3074L21.9018 44.8181L23.5989 42.2634L80.1257 79.7527L78.4298 82.3074Z" fill="#76D2BC"/>
    <path d="M50.6492 119.347L53.558 119.345L53.5518 112.26L50.643 112.263L50.6492 119.347ZM56.6265 122.409L47.585 122.417L47.5733 109.199L56.6148 109.191L56.6265 122.409Z" fill="#76D2BC"/>
    <path d="M31.5721 125.504L72.8101 125.468C71.1037 122.838 66.5445 122.4 63.6773 122.402L40.6995 122.423C37.8335 122.425 33.2763 122.871 31.5721 125.504ZM76.7123 128.531L27.6748 128.574L27.9034 126.839C28.5307 122.091 33.1923 119.362 40.6968 119.356L63.6746 119.335C71.1797 119.329 75.8479 122.049 76.4806 126.797L76.7123 128.531Z" fill="#76D2BC"/>
</svg>
