<svg width="140" height="162" viewBox="0 0 140 162" fill="none" xmlns="http://www.w3.org/2000/svg">
    <path d="M34.9999 139.333C31.9057 139.333 28.9383 138.104 26.7503 135.916C24.5624 133.728 23.3333 130.761 23.3333 127.667V34.3332C23.3333 31.239 24.5624 28.2715 26.7503 26.0836C28.9383 23.8957 31.9057 22.6665 34.9999 22.6665H81.6666C83.5132 22.6635 85.3421 23.0259 87.048 23.7327C88.754 24.4395 90.3032 25.4768 91.6066 26.7849L112.537 47.7149C113.848 49.0186 114.888 50.5694 115.597 52.2775C116.306 53.9856 116.67 55.8172 116.667 57.6665V127.667C116.667 130.761 115.437 133.728 113.249 135.916C111.062 138.104 108.094 139.333 105 139.333H34.9999Z" fill="white"/>
    <path d="M23.3333 127.667C23.3333 130.761 24.5623 133.729 26.7502 135.917C28.8013 137.968 31.5377 139.176 34.4211 139.319L35.0002 139.333H105L105.578 139.319C108.27 139.185 110.833 138.124 112.83 136.315L113.249 135.917C115.437 133.729 116.666 130.761 116.666 127.667V57.6665C116.669 55.9327 116.35 54.2146 115.726 52.5991L115.597 52.2778C114.888 50.5698 113.848 49.0191 112.536 47.7153L91.6067 26.7847C90.3848 25.5584 88.947 24.5698 87.3665 23.8687L87.0481 23.7329C85.3422 23.0261 83.5128 22.6635 81.6663 22.6665H35.0002V8.6665H81.6663V8.66748C85.3518 8.66445 89.0015 9.38857 92.4065 10.7993C95.8106 12.2097 98.9031 14.2775 101.506 16.8853L122.436 37.8149H122.435C125.044 40.4166 127.115 43.5079 128.528 46.9116C129.942 50.3207 130.669 53.9756 130.666 57.6665V127.667C130.666 134.474 127.962 141.003 123.149 145.816C118.335 150.629 111.807 153.333 105 153.333H35.0002C28.1931 153.333 21.6642 150.629 16.8508 145.816C12.0374 141.002 9.33325 134.474 9.33325 127.667V34.3335C9.33325 27.5263 12.0374 20.9975 16.8508 16.1841L17.3069 15.7388C22.0724 11.204 28.4058 8.6665 35.0002 8.6665V22.6665L34.4211 22.6812C31.5377 22.8243 28.8014 24.0324 26.7502 26.0835C24.5623 28.2714 23.3333 31.2393 23.3333 34.3335V127.667Z" fill="white"/>
    <path d="M21.3333 127.667V34.3335C21.3333 30.7089 22.7732 27.2324 25.3362 24.6695C27.8992 22.1065 31.3756 20.6665 35.0002 20.6665H81.6663C83.7756 20.6635 85.865 21.0779 87.8137 21.8853C89.7621 22.6926 91.5318 23.877 93.0208 25.3706L113.947 46.2964C115.445 47.7864 116.634 49.5591 117.445 51.5112C118.254 53.4623 118.669 55.5542 118.666 57.6665V127.667C118.666 131.291 117.226 134.768 114.663 137.331C112.1 139.893 108.625 141.333 105 141.334H35.0002C31.3757 141.334 27.8992 139.893 25.3362 137.331C22.7732 134.768 21.3333 131.291 21.3333 127.667ZM25.3333 127.667C25.3333 130.23 26.3517 132.689 28.1643 134.501C29.9772 136.314 32.4365 137.334 35.0002 137.334H105C107.564 137.333 110.022 136.314 111.835 134.501C113.648 132.689 114.666 130.23 114.666 127.667V57.6636C114.669 56.0786 114.358 54.5084 113.75 53.0444C113.143 51.5804 112.25 50.2509 111.126 49.1333L90.1926 28.1987L90.1897 28.1968C89.0725 27.0756 87.7447 26.1864 86.2825 25.5806C84.8203 24.9748 83.2528 24.664 81.6702 24.6665H35.0002C32.4365 24.6665 29.9772 25.6847 28.1643 27.4976C26.3515 29.3104 25.3333 31.7698 25.3333 34.3335V127.667Z" fill="#3E2727"/>
    <path d="M79.6667 51.8335V22.6665C79.6667 21.5619 80.5622 20.6665 81.6667 20.6665C82.7713 20.6665 83.6667 21.5619 83.6667 22.6665V51.8335C83.6668 52.85 84.071 53.8246 84.7898 54.5435C85.5086 55.2623 86.4832 55.6664 87.4998 55.6665H116.667C117.771 55.6665 118.667 56.5619 118.667 57.6665C118.667 58.7711 117.771 59.6665 116.667 59.6665H87.4998C85.4223 59.6664 83.4297 58.8415 81.9607 57.3726C80.4917 55.9036 79.6668 53.9109 79.6667 51.8335Z" fill="#3E2727"/>
    <path d="M41.3887 115V88.9995H47.1885C49.6741 88.9995 51.489 89.3546 52.9883 90.1437C55.5529 91.4851 57.0521 93.9708 57.0521 97.4033C57.0521 100.441 55.7501 103.44 52.2781 104.9C50.8972 105.492 49.1612 105.847 46.8334 105.847H45.5314V115H41.3887ZM45.5314 102.454H47.1096C48.5299 102.454 49.5952 102.217 50.3843 101.783C51.9625 101.033 52.7121 99.4944 52.7121 97.4033C52.7121 95.549 52.0019 94.0102 50.5421 93.1422C49.7136 92.6688 48.6089 92.3926 47.0701 92.3926H45.5314V102.454Z" fill="#3E2727"/>
    <path d="M61.5598 115V88.9995H69.0167C78.2491 88.9995 83.102 94.247 83.102 101.822C83.102 109.555 77.8545 115 68.7011 115H61.5598ZM65.7025 111.489H68.7405C76.0396 111.489 78.6831 107.07 78.6831 101.862C78.6831 96.2591 75.4084 92.511 68.6616 92.511H65.7025V111.489Z" fill="#3E2727"/>
    <path d="M87.5875 115V88.9995H101.436L100.252 92.511H91.7302V100.007H100.095V103.519H91.7302V115H87.5875Z" fill="#3E2727"/>
</svg>
