<svg width="48" height="48" viewBox="0 0 48 48" fill="none" xmlns="http://www.w3.org/2000/svg">
<path d="M26.1437 39C9.74391 39 0.389756 27.7387 0 9H8.21487C8.4847 22.7538 14.5409 28.5796 19.3379 29.7808V9H27.0731V20.8619C31.8101 20.3514 36.787 14.9459 38.466 9H46.2011C45.5685 12.0837 44.3073 15.0035 42.4966 17.5768C40.6859 20.15 38.3645 22.3214 35.6777 23.955C38.6768 25.4476 41.3258 27.5604 43.4498 30.1537C45.5739 32.7471 47.1247 35.7622 48 39H39.4853C38.6996 36.1877 37.1027 33.6703 34.8947 31.7632C32.6867 29.8561 29.9658 28.6442 27.0731 28.2793V39H26.1437Z" fill="#3E2727"/>
</svg>
